<svg width="54" height="65" viewBox="0 0 54 65" fill="none" xmlns="http://www.w3.org/2000/svg">
<g clip-path="url(#clip0)">
<path d="M14.0562 17.3333C14.7682 17.3333 15.3507 16.7708 15.3507 16.0833C15.3507 15.3833 14.7553 14.8333 14.0562 14.8333C13.3442 14.8333 12.7617 15.3958 12.7617 16.0833C12.7617 16.7708 13.3313 17.3333 14.0562 17.3333Z" fill="#C2A38F"/>
<path d="M1.29196 27.1958L2.5994 29.2458L1.83564 31.5458C0.916551 34.2958 2.0816 37.2458 4.64471 38.7208L6.76768 39.9333L7.18192 42.2958C7.54438 44.3458 8.9036 46.0208 10.7677 46.8458L4.96833 56.1833C4.4117 57.0833 5.18839 58.2208 6.27577 58.0583L13.4473 57.0083L16.0881 63.5333C16.4764 64.5083 17.8615 64.6083 18.4052 63.7208L26.5347 50.5208L26.9877 50.3333H27.0266L27.4667 50.5208L35.5185 63.7208C36.0622 64.6208 37.4473 64.5083 37.8356 63.5458L40.4764 57.0208L47.6479 58.0708C48.7224 58.2333 49.512 57.1083 48.9554 56.1958L43.2207 46.8583C45.0978 46.0333 46.457 44.3583 46.8195 42.3083L47.2337 39.9458L49.3567 38.7333C51.9327 37.2583 53.0848 34.3083 52.1657 31.5583L51.402 29.2583L52.7094 27.2083C54.2758 24.7583 53.8745 21.6333 51.7515 19.6083L49.978 17.9208L50.1593 15.5208C50.3793 12.6333 48.5152 10.0333 45.6415 9.19581L43.3114 8.49581L42.3275 6.30831C41.3178 4.05831 39.0266 2.60831 36.4894 2.60831C35.6091 2.60831 35.1949 2.74581 32.8648 3.15831C31.5962 2.34581 30.1204 0.333313 27.0007 0.333313C24.114 0.333313 22.5735 2.07081 21.1237 3.15831C18.7806 2.74581 18.4182 2.59581 17.4991 2.59581C14.9619 2.59581 12.6706 4.04581 11.6609 6.29581L10.69 8.49581L8.34697 9.17081C5.47318 10.0083 3.62205 12.6208 3.82917 15.4958L4.0104 17.9083L2.23694 19.5833C0.113962 21.6083 -0.274388 24.7333 1.29196 27.1958ZM17.5379 60.2458L15.4797 55.1708C15.2596 54.6208 14.6771 54.2958 14.0816 54.3833L8.60587 55.1833L13.4343 47.4083L15.5703 47.5083L17.046 49.3833C18.2369 50.9083 20.1398 51.8208 22.1204 51.8208C22.3275 51.8208 22.5347 51.8083 22.7288 51.7958L17.5379 60.2458ZM39.8421 54.3958C39.2466 54.3083 38.6641 54.6333 38.444 55.1708L36.3987 60.2333L31.2596 51.7958C31.4667 51.8208 31.6868 51.8333 31.8939 51.8333C33.8745 51.8333 35.7644 50.9208 36.9683 49.4083L38.444 47.5208L40.567 47.4208L45.3437 55.1958L39.8421 54.3958ZM4.06218 21.3708L5.95215 19.5708L5.96509 19.5583C6.41817 19.1083 6.65118 18.4958 6.61234 17.8833L6.41817 15.3208C6.28872 13.6083 7.38904 12.0708 9.09778 11.5708L11.5962 10.8458C12.2175 10.6708 12.7353 10.2333 12.9942 9.64581L14.0428 7.30831C14.6382 5.97081 16.0104 5.10831 17.512 5.10831C18.3146 5.10831 20.347 5.62081 21.0719 5.68331C21.1107 5.68331 21.1496 5.68331 21.2013 5.68331C22.0686 5.68331 22.5217 5.32081 23.2466 4.70831C24.6835 3.52081 25.5767 2.83331 27.0007 2.83331C28.9813 2.83331 29.8486 4.17081 31.389 5.22081C31.8939 5.60831 32.5282 5.74581 32.9554 5.67081C35.5703 5.22081 35.8809 5.10831 36.4894 5.10831C37.991 5.10831 39.3502 5.97081 39.9586 7.30831L41.0072 9.64581C41.279 10.2208 41.7839 10.6583 42.4052 10.8458L44.9036 11.5708C46.6123 12.0708 47.7127 13.6083 47.5832 15.3208L47.389 17.8833C47.3373 18.5083 47.5703 19.1208 48.0363 19.5708L49.9392 21.3833C51.1949 22.5833 51.4279 24.4333 50.5088 25.8958L49.1107 28.0833C48.7741 28.6208 48.6965 29.2708 48.8907 29.8708L49.7062 32.3208C50.2499 33.9583 49.5638 35.6958 48.0363 36.5708L45.7709 37.8708C45.2013 38.1958 44.8259 38.7458 44.7224 39.3583L44.2822 41.8833C44.0104 43.4333 42.7547 44.6208 41.1625 44.8708C41.1107 44.8708 41.0719 44.8833 41.0201 44.8958C40.9295 44.9083 40.8389 44.9208 40.7353 44.9208L38.1463 45.0458C37.4861 45.0708 36.8777 45.3833 36.4764 45.8958L34.8971 47.8958C34.1852 48.7958 33.0589 49.3333 31.8809 49.3333C31.3243 49.3333 30.7936 49.2208 30.2887 48.9833C30.2758 48.9833 30.2628 48.9708 30.2499 48.9708C27.8033 47.9708 27.7515 47.8333 27.2855 47.8333H26.703C26.2369 47.8333 26.1204 47.9958 23.7386 48.9833C23.2337 49.1958 22.7806 49.3333 22.1075 49.3333C20.9295 49.3333 19.8033 48.7958 19.0913 47.8833L17.512 45.8833C17.1107 45.3708 16.5023 45.0583 15.8421 45.0333C12.1916 44.8458 13.5767 44.9333 12.8518 44.8708C11.2466 44.6333 9.99098 43.4458 9.71914 41.8833L9.27901 39.3708C9.17545 38.7583 8.80004 38.2208 8.24341 37.8833L8.23046 37.8708L5.95215 36.5708C4.42464 35.6958 3.73856 33.9458 4.28225 32.3208L5.09778 29.8833C5.3049 29.2833 5.22723 28.6333 4.87771 28.0833L3.47966 25.8958C2.56056 24.4333 2.79357 22.5708 4.06218 21.3708Z" fill="#C2A38F"/>
<path d="M26.9999 43.5833C36.9935 43.5833 45.1229 35.7333 45.1229 26.0833C45.1229 16.4333 36.9935 8.58331 26.9999 8.58331C23.4142 8.58331 19.9579 9.59581 16.9935 11.5083C16.398 11.8958 16.2426 12.6708 16.631 13.2458C17.0323 13.8208 17.8349 13.9708 18.4303 13.5958C20.9676 11.9583 23.932 11.0958 26.9999 11.0958C35.5695 11.0958 42.5339 17.8208 42.5339 26.0958C42.5339 34.3708 35.5695 41.0958 26.9999 41.0958C18.4303 41.0958 11.4659 34.3583 11.4659 26.0833C11.4659 23.9833 11.9708 21.9083 12.4627 20.7958C12.7475 20.1583 12.4368 19.4208 11.7766 19.1583C11.1164 18.8958 10.3527 19.1833 10.0808 19.8208C9.34297 21.4583 8.87695 23.9208 8.87695 26.0833C8.87695 35.7333 17.0064 43.5833 26.9999 43.5833Z" fill="#C2A38F"/>
<path d="M23.7002 27.3458C24.5286 26.5833 25.0723 25.9208 25.3701 25.3208C25.6678 24.7083 25.8231 24.0583 25.8231 23.3833C25.8231 22.2708 25.396 21.3708 24.5545 20.7083C23.739 20.0708 22.6257 19.7458 21.2665 19.7458C20.2698 19.7458 19.3377 19.9083 18.5222 20.2458C17.6937 20.5833 17.0206 21.0583 16.5028 21.6583L16.3086 21.8958L17.9914 23.3083L18.1986 23.0583C18.8846 22.2583 19.8296 21.8833 21.0982 21.8833C21.862 21.8833 22.4575 22.0333 22.8458 22.3333C23.2212 22.6208 23.4024 23.0208 23.4024 23.5458C23.4024 23.9208 23.3118 24.2958 23.1176 24.6583C22.9235 25.0333 22.5351 25.5083 21.9526 26.0458L16.8264 30.8208V32.4208H26.3539V30.3208H20.5028L23.7002 27.3458Z" fill="#C2A38F"/>
<path d="M35.8555 27.4084V24.8209H33.5513V27.4084H29.7973L35.8426 19.8834H33.1112L26.6387 27.8834V29.4959H33.4995V32.4209H35.8555V29.4959H38.1986V27.4084H35.8555Z" fill="#C2A38F"/>
</g>
<defs>
<clipPath id="clip0">
<rect width="53.3333" height="64" fill="white" transform="translate(0.333984 0.333313)"/>
</clipPath>
</defs>
</svg>
