<svg width="101" height="101" viewBox="0 0 101 101" fill="none" xmlns="http://www.w3.org/2000/svg">
<g clip-path="url(#clip0)">
<path d="M28.7361 69.664C27.777 69.664 26.8551 69.9034 26.0371 70.3528C21.7284 64.8295 19.3635 57.9682 19.3635 50.9391C19.3635 33.5277 33.5282 19.3629 50.9397 19.3629C53.0564 19.3629 55.1721 19.5735 57.2282 19.989C57.9515 20.1354 58.6581 19.6671 58.8045 18.9427C58.9508 18.2183 58.4825 17.5127 57.7581 17.3659C55.528 16.9153 53.2341 16.687 50.9397 16.687C41.7907 16.687 33.189 20.2498 26.7197 26.7192C20.2504 33.1885 16.6875 41.7902 16.6875 50.9391C16.6875 58.6351 19.3007 66.1455 24.0584 72.1664C23.4458 73.0816 23.1166 74.1572 23.1166 75.2835C23.1166 76.7845 23.7014 78.1957 24.7629 79.2566C25.8239 80.3181 27.235 80.903 28.7361 80.903C30.2371 80.903 31.6483 80.3181 32.7098 79.2566C33.7713 78.1957 34.3556 76.784 34.3556 75.283C34.3556 73.7824 33.7713 72.3708 32.7098 71.3098C31.6483 70.2483 30.2371 69.664 28.7361 69.664ZM30.8173 77.3647C30.2617 77.9208 29.5221 78.227 28.7361 78.227C27.95 78.227 27.211 77.9208 26.6549 77.3647C26.0988 76.8086 25.7925 76.0695 25.7925 75.2835C25.7925 74.4969 26.0988 73.7579 26.6549 73.2018C27.2105 72.6457 27.95 72.3399 28.7361 72.3399C29.5221 72.3399 30.2612 72.6462 30.8173 73.2018C31.3734 73.7579 31.6796 74.4969 31.6796 75.2835C31.6796 76.0695 31.3734 76.8086 30.8173 77.3647Z" fill="#F8F5F2"/>
<path d="M77.8209 29.7103C79.2754 27.5282 79.0418 24.5449 77.1179 22.6211C76.0564 21.5601 74.6453 20.9753 73.1442 20.9753C71.6432 20.9753 70.2321 21.5601 69.1706 22.6211C68.1091 23.6826 67.5247 25.0937 67.5247 26.5948C67.5247 28.0958 68.1091 29.507 69.1706 30.5684C70.2321 31.6299 71.6432 32.2143 73.1442 32.2143C74.1033 32.2143 75.0253 31.9749 75.8432 31.5254C80.1519 37.0493 82.5169 43.91 82.5169 50.9391C82.5169 68.3506 68.3521 82.5153 50.9406 82.5153C48.8448 82.5153 46.749 82.3089 44.7123 81.9012C43.9879 81.7565 43.2828 82.2263 43.1375 82.9507C42.9928 83.6756 43.4626 84.3801 44.187 84.5254C46.3962 84.9671 48.6687 85.1913 50.9406 85.1913C60.0896 85.1913 68.6913 81.6284 75.1606 75.1591C81.6299 68.6898 85.1928 60.0881 85.1928 50.9391C85.1928 43.2426 82.5791 35.7317 77.8209 29.7103ZM71.0631 28.6765C70.507 28.1204 70.2007 27.3813 70.2007 26.5948C70.2007 25.8087 70.507 25.0697 71.0631 24.5136C71.6186 23.9575 72.3582 23.6512 73.1442 23.6512C73.9303 23.6512 74.6699 23.9575 75.2259 24.5136C76.3732 25.6613 76.3732 27.5287 75.2259 28.6765C74.6699 29.232 73.9303 29.5383 73.1442 29.5383C72.3577 29.5383 71.6186 29.232 71.0631 28.6765Z" fill="#F8F5F2"/>
<path d="M45.4179 73.9523C45.4179 74.6913 46.0174 75.2903 46.7559 75.2903H55.1219C55.8609 75.2903 56.4599 74.6913 56.4599 73.9523V71.3584C58.2191 70.8849 59.901 70.1877 61.4815 69.2772L63.3128 71.1086C63.5637 71.3595 63.9039 71.5006 64.2593 71.5006C64.6137 71.5006 64.9545 71.3595 65.2053 71.1081L71.1186 65.1907C71.6407 64.668 71.6407 63.8208 71.1186 63.2987L69.2893 61.4694C70.1997 59.8889 70.897 58.207 71.3705 56.4478H73.9544C74.6935 56.4478 75.2924 55.8489 75.2924 55.1098V46.7438C75.2924 46.0048 74.6935 45.4059 73.9544 45.4059H71.37C70.8964 43.6472 70.1997 41.9653 69.2893 40.3848L71.1086 38.5655C71.3595 38.3146 71.5006 37.9738 71.5006 37.6189C71.5001 37.2641 71.359 36.9233 71.1081 36.6724L65.1902 30.7592C64.6681 30.2371 63.8208 30.2371 63.2982 30.7597L61.4815 32.577C59.901 31.6665 58.2191 30.9693 56.4599 30.4958V27.9259C56.4599 27.1869 55.8609 26.588 55.1219 26.588H46.7559C46.0174 26.588 45.4179 27.1869 45.4179 27.9259V30.4963C43.6592 30.9693 41.9774 31.6665 40.3969 32.577L38.5796 30.7597C38.0575 30.2376 37.2103 30.2371 36.6877 30.7592L30.7702 36.673C30.5189 36.9238 30.3777 37.2641 30.3777 37.6189C30.3777 37.9738 30.5189 38.3146 30.7697 38.5655L32.5891 40.3848C31.6786 41.9653 30.9814 43.6466 30.5079 45.4059H27.9286C27.1896 45.4059 26.5906 46.0048 26.5906 46.7433L26.5859 55.1093C26.5854 55.4642 26.7265 55.805 26.9774 56.0558C27.2283 56.3067 27.5685 56.4478 27.9239 56.4478H30.5079C30.9814 58.207 31.6786 59.8889 32.5891 61.4694L30.7598 63.2987C30.2377 63.8208 30.2371 64.668 30.7598 65.1907L36.673 71.1081C36.9239 71.3589 37.2641 71.5006 37.619 71.5006H37.6195C37.9744 71.5006 38.3147 71.3595 38.5655 71.1086L40.3964 69.2772C41.9774 70.1877 43.6592 70.8849 45.4179 71.3584V73.9523ZM40.9211 66.4633C40.3916 66.121 39.695 66.1952 39.2486 66.641L37.6195 68.2701L33.5978 64.2452L35.2253 62.6171C35.6711 62.1713 35.7453 61.4746 35.403 60.9452C34.1899 59.0678 33.337 57.0102 32.8687 54.8287C32.7359 54.2125 32.1913 53.7719 31.5605 53.7719H29.2624L29.2655 48.0818H31.5605C32.1913 48.0818 32.7359 47.6417 32.8687 47.025C33.337 44.844 34.1899 42.7864 35.403 40.909C35.7453 40.3796 35.6711 39.6829 35.2253 39.2371L33.6082 37.6195L37.6331 33.5977L39.2486 35.2137C39.695 35.6595 40.3911 35.7332 40.9211 35.3914C42.7979 34.1784 44.8556 33.3254 47.0371 32.8571C47.6533 32.7244 48.0939 32.1792 48.0939 31.5489V29.2639H53.7839V31.5484C53.7839 32.1792 54.224 32.7244 54.8407 32.8566C57.0217 33.3254 59.0799 34.1778 60.9567 35.3909C61.4862 35.7332 62.1829 35.6595 62.6287 35.2132L64.2447 33.5977L68.2696 37.6195L66.6525 39.2365C66.2062 39.6829 66.1325 40.3796 66.4748 40.909C67.6879 42.7864 68.5403 44.844 69.0092 47.025C69.1414 47.6417 69.6865 48.0818 70.3173 48.0818H72.6165V53.7719H70.3173C69.6865 53.7719 69.1419 54.2125 69.0092 54.8287C68.5409 57.0097 67.6879 59.0678 66.4748 60.9447C66.1325 61.4746 66.2067 62.1713 66.6525 62.6171L68.2801 64.2447L64.2583 68.2696L62.6292 66.641C62.1829 66.1947 61.4862 66.121 60.9567 66.4633C59.0794 67.6764 57.0217 68.5288 54.8407 68.9976C54.224 69.1304 53.7839 69.675 53.7839 70.3058V72.6143H48.0939V70.3058C48.0939 69.6755 47.6533 69.1304 47.0371 68.9976C44.8561 68.5293 42.7984 67.6764 40.9211 66.4633Z" fill="#F8F5F2"/>
<path d="M61.9959 50.9391C61.9959 44.843 57.0365 39.8836 50.9403 39.8836C44.8442 39.8836 39.8848 44.843 39.8848 50.9391C39.8848 57.0353 44.8442 61.9947 50.9403 61.9947C57.0365 61.9947 61.9959 57.0353 61.9959 50.9391ZM42.5607 50.9391C42.5607 46.3184 46.3196 42.5595 50.9403 42.5595C55.561 42.5595 59.3199 46.3189 59.3199 50.9391C59.3199 55.5593 55.561 59.3187 50.9403 59.3187C46.3196 59.3187 42.5607 55.5598 42.5607 50.9391Z" fill="#F8F5F2"/>
<path d="M63.2598 21.7472C63.6121 21.7472 63.9571 21.604 64.2058 21.3552C64.4546 21.1049 64.5978 20.7599 64.5978 20.4077C64.5978 20.0575 64.4551 19.712 64.2058 19.4617C63.9571 19.2129 63.6121 19.0697 63.2598 19.0697C62.9065 19.0697 62.5632 19.2129 62.3144 19.4617C62.0651 19.712 61.9219 20.0559 61.9219 20.4077C61.9219 20.761 62.0651 21.1049 62.3144 21.3552C62.5632 21.604 62.9065 21.7472 63.2598 21.7472Z" fill="#F8F5F2"/>
<path d="M38.6778 80.1551C38.3261 80.1551 37.9806 80.2983 37.7318 80.5471C37.483 80.7959 37.3398 81.1413 37.3398 81.4931C37.3398 81.8464 37.483 82.1903 37.7318 82.4391C37.9806 82.6878 38.3261 82.831 38.6778 82.831C39.0296 82.831 39.375 82.6878 39.6238 82.4391C39.8726 82.1903 40.0158 81.8448 40.0158 81.4931C40.0158 81.1413 39.8726 80.7959 39.6238 80.5471C39.375 80.2983 39.0296 80.1551 38.6778 80.1551Z" fill="#F8F5F2"/>
</g>
<defs>
<clipPath id="clip0">
<rect width="68.5043" height="68.5043" fill="white" transform="translate(16.6875 16.687)"/>
</clipPath>
</defs>
</svg>
