<svg width="58" height="58" viewBox="0 0 58 58" fill="none" xmlns="http://www.w3.org/2000/svg">
<g clip-path="url(#clip0)">
<path d="M5.44339 57.9952H46.529C49.1655 57.992 51.3031 55.8552 51.3064 53.2178V34.1083H49.3952V53.2178C49.3952 54.8008 48.1116 56.084 46.529 56.084H5.44339C3.85987 56.084 2.57696 54.8008 2.57696 53.2178V11.1771C2.57696 9.59387 3.85987 8.31072 5.44339 8.31072H34.1076V6.39929H5.44339C2.80619 6.40265 0.66889 8.53947 0.666016 11.1771V53.2178C0.66889 55.8552 2.80619 57.992 5.44339 57.9952Z" fill="#C2A38F"/>
<path d="M4.48828 10.2217H6.39923V12.1324H4.48828V10.2217Z" fill="#C2A38F"/>
<path d="M8.31055 10.2217H10.2215V12.1324H8.31055V10.2217Z" fill="#C2A38F"/>
<path d="M12.1309 10.2217H14.0418V12.1324H12.1309V10.2217Z" fill="#C2A38F"/>
<path d="M4.48828 14.0433H31.2418V15.9543H4.48828V14.0433Z" fill="#C2A38F"/>
<path d="M55.3078 9.05495L54.6242 4.82656C54.5583 4.4208 54.2405 4.10247 53.8345 4.0366L49.6063 3.35323L46.1325 0.847292C45.7983 0.606567 45.3483 0.606567 45.0139 0.847292L41.54 3.35323L37.3121 4.0366C36.9061 4.10247 36.5878 4.4208 36.5217 4.82656L35.8385 9.05495L33.3331 12.5291C33.0921 12.8625 33.0921 13.3133 33.3331 13.6467L35.8385 17.1213L36.5217 21.3489C36.5811 21.6872 36.8172 21.9676 37.1413 22.0819L34.2081 27.9486C34.0596 28.2447 34.0756 28.5968 34.25 28.878C34.4239 29.1597 34.7319 29.331 35.0629 29.331H38.3739L39.9977 31.7725C40.1759 32.0391 40.4758 32.1983 40.796 32.1972H40.855C41.1953 32.1763 41.4986 31.9758 41.6509 31.6711L44.8716 25.2226L45.0139 25.3258C45.3483 25.5665 45.7983 25.5665 46.1325 25.3258L46.2747 25.2226L49.4957 31.6661C49.6478 31.9706 49.9505 32.1713 50.2899 32.1928L50.3508 32.1972C50.6696 32.1972 50.9681 32.0379 51.1455 31.7725L52.7726 29.331H56.0839C56.4151 29.3326 56.7249 29.1621 56.9004 28.8802C57.0753 28.598 57.0918 28.2454 56.9435 27.9486L54.01 22.0819C54.3337 21.9676 54.5701 21.6872 54.629 21.3489L55.3124 17.1213L57.8185 13.6467C58.0597 13.3133 58.0597 12.8625 57.8185 12.5291L55.3078 9.05495ZM40.6777 29.3429L39.6794 27.8452C39.5021 27.58 39.2041 27.4198 38.8851 27.4198H36.6088L39.1033 22.4287L41.54 22.8223L42.809 23.7378L43.302 24.0942L40.6777 29.3429ZM54.5375 27.4198H52.2617C51.9424 27.4198 51.6438 27.58 51.467 27.8452L50.4689 29.3429L47.8446 24.0942L48.3371 23.7378L49.6063 22.8223L52.043 22.4287L54.5375 27.4198ZM53.6268 16.1859C53.5396 16.3059 53.4817 16.4446 53.4582 16.5919L52.8471 20.3618L52.4325 20.4299L49.0799 20.9714C48.9323 20.9954 48.7934 21.0531 48.6724 21.141L47.4755 22.0009L45.5736 23.3756L43.6728 22.0045L42.4758 21.1446C42.3549 21.057 42.2159 20.999 42.0684 20.9753L38.7157 20.4339L38.3011 20.3657L37.691 16.5955C37.6671 16.4489 37.6086 16.3098 37.5214 16.1895L35.2855 13.0881L37.5195 9.99006C37.607 9.8703 37.6652 9.73089 37.6884 9.5843L38.299 5.81414L42.0691 5.20358C42.2162 5.17963 42.3549 5.12166 42.4758 5.034L45.5736 2.80016L48.6707 5.034C48.7912 5.12166 48.9304 5.17963 49.0775 5.20358L52.8471 5.81414L53.4582 9.5843C53.4817 9.73089 53.5396 9.8703 53.6268 9.99006L55.8606 13.0881L53.6268 16.1859Z" fill="#C2A38F"/>
<path d="M45.5733 6.39929C41.8791 6.39929 38.8848 9.39363 38.8848 13.0881C38.8848 16.7819 41.8791 19.7762 45.5733 19.7762C49.2669 19.7762 52.2614 16.7819 52.2614 13.0881C52.2564 9.39602 49.2647 6.40408 45.5733 6.39929ZM45.5733 17.8655C42.9345 17.8655 40.7957 15.7263 40.7957 13.0881C40.7957 10.4497 42.9345 8.31072 45.5733 8.31072C48.2115 8.31072 50.3505 10.4497 50.3505 13.0881C50.3471 15.7251 48.2101 17.8619 45.5733 17.8655Z" fill="#C2A38F"/>
<path d="M46.0759 10.3637C45.7942 10.1903 45.4429 10.1738 45.147 10.3216L43.2363 11.2773L44.0905 12.9875L44.6191 12.7231V15.9543H46.5301V11.1772C46.5291 10.8457 46.3581 10.5379 46.0759 10.3637Z" fill="#C2A38F"/>
<path d="M14.043 19.7762C14.043 19.2488 13.6157 18.8207 13.0878 18.8207H5.444C4.91608 18.8207 4.48828 19.2488 4.48828 19.7762V27.4198C4.48828 27.9475 4.91608 28.3755 5.444 28.3755H13.0878C13.6157 28.3755 14.043 27.9475 14.043 27.4198V19.7762ZM12.1321 26.4645H6.39923V20.7317H12.1321V26.4645Z" fill="#C2A38F"/>
<path d="M15.9531 18.8207H22.6415V20.7317H15.9531V18.8207Z" fill="#C2A38F"/>
<path d="M15.9531 22.6424H32.196V24.5536H15.9531V22.6424Z" fill="#C2A38F"/>
<path d="M15.9531 26.4645H24.5522V28.3754H15.9531V26.4645Z" fill="#C2A38F"/>
<path d="M26.4648 26.4645H32.1977V28.3754H26.4648V26.4645Z" fill="#C2A38F"/>
<path d="M14.043 32.1971C14.043 31.6697 13.6157 31.2419 13.0878 31.2419H5.444C4.91608 31.2419 4.48828 31.6697 4.48828 32.1971V39.8412C4.48828 40.3688 4.91608 40.7969 5.444 40.7969H13.0878C13.6157 40.7969 14.043 40.3688 14.043 39.8412V32.1971ZM12.1321 38.8859H6.39923V33.1526H12.1321V38.8859Z" fill="#C2A38F"/>
<path d="M15.9531 31.2419H22.6415V33.1526H15.9531V31.2419Z" fill="#C2A38F"/>
<path d="M15.9531 35.0636H37.9286V36.975H15.9531V35.0636Z" fill="#C2A38F"/>
<path d="M15.9531 38.886H24.5522V40.7969H15.9531V38.886Z" fill="#C2A38F"/>
<path d="M26.4648 38.886H37.9303V40.7969H26.4648V38.886Z" fill="#C2A38F"/>
<path d="M13.0878 43.6633H5.444C4.91608 43.6633 4.48828 44.0911 4.48828 44.6186V52.2624C4.48828 52.7901 4.91608 53.2179 5.444 53.2179H13.0878C13.6157 53.2179 14.043 52.7901 14.043 52.2624V44.6186C14.043 44.0911 13.6157 43.6633 13.0878 43.6633ZM12.1321 51.3071H6.39923V45.574H12.1321V51.3071Z" fill="#C2A38F"/>
<path d="M15.9531 43.6633H22.6415V45.574H15.9531V43.6633Z" fill="#C2A38F"/>
<path d="M15.9531 47.485H37.9286V49.3959H15.9531V47.485Z" fill="#C2A38F"/>
<path d="M15.9531 51.3071H24.5522V53.2178H15.9531V51.3071Z" fill="#C2A38F"/>
<path d="M26.4648 51.3071H37.9303V53.2178H26.4648V51.3071Z" fill="#C2A38F"/>
</g>
<defs>
<clipPath id="clip0">
<rect width="57.3333" height="57.3333" fill="white" transform="translate(0.666016 0.666687)"/>
</clipPath>
</defs>
</svg>
