<svg width="240" height="240" viewBox="0 0 240 240" fill="none" xmlns="http://www.w3.org/2000/svg">
<mask id="path-1-inside-1" fill="white">
<path d="M210.198 146.832C215.809 127.928 215.333 107.738 208.838 89.1198C202.342 70.5012 190.156 54.3968 174.003 43.0858C157.85 31.7747 138.55 25.8299 118.832 26.0925C99.1148 26.3551 79.9792 32.8119 64.1336 44.5491L64.9255 45.6183C80.5468 34.0472 99.4116 27.6817 118.85 27.4228C138.288 27.1639 157.316 33.0247 173.24 44.1756C189.164 55.3266 201.178 71.203 207.582 89.5581C213.985 107.913 214.454 127.817 208.923 146.454L210.198 146.832Z"/>
</mask>
<path d="M210.198 146.832C215.809 127.928 215.333 107.738 208.838 89.1198C202.342 70.5012 190.156 54.3968 174.003 43.0858C157.85 31.7747 138.55 25.8299 118.832 26.0925C99.1148 26.3551 79.9792 32.8119 64.1336 44.5491L64.9255 45.6183C80.5468 34.0472 99.4116 27.6817 118.85 27.4228C138.288 27.1639 157.316 33.0247 173.24 44.1756C189.164 55.3266 201.178 71.203 207.582 89.5581C213.985 107.913 214.454 127.817 208.923 146.454L210.198 146.832Z" stroke="white" stroke-width="2" mask="url(#path-1-inside-1)"/>
<path d="M207.785 153.249L205.55 143.988L214.687 146.683L207.785 153.249Z" fill="white"/>
</svg>
