<svg width="101" height="101" viewBox="0 0 101 101" fill="none" xmlns="http://www.w3.org/2000/svg">
<g clip-path="url(#clip0)">
<path d="M34.1558 33.2458C35.0547 33.2458 35.7901 32.5357 35.7901 31.6677C35.7901 30.784 35.0383 30.0896 34.1558 30.0896C33.2569 30.0896 32.5215 30.7998 32.5215 31.6677C32.5215 32.5357 33.2406 33.2458 34.1558 33.2458Z" fill="#C2A38F"/>
<path d="M18.041 45.6972L19.6916 48.2854L18.7274 51.1891C17.567 54.661 19.0379 58.3854 22.2738 60.2476L24.9541 61.7783L25.477 64.761C25.9346 67.3491 27.6507 69.4638 30.0041 70.5054L22.6824 82.294C21.9796 83.4302 22.9602 84.8663 24.333 84.6612L33.3871 83.3355L36.721 91.5733C37.2113 92.8043 38.96 92.9305 39.6465 91.8101L49.9099 75.1451L50.4819 74.9083H50.5309L51.0866 75.1451L61.2519 91.8101C61.9384 92.9463 63.6871 92.8043 64.1774 91.5891L67.5113 83.3513L76.5654 84.6769C77.9218 84.8821 78.9188 83.4618 78.216 82.3097L70.9761 70.5212C73.3458 69.4796 75.0618 67.3649 75.5194 64.7768L76.0424 61.7941L78.7227 60.2633C81.9749 58.4012 83.4295 54.6768 82.2691 51.2049L81.3049 48.3012L82.9555 45.713C84.933 42.6199 84.4264 38.6746 81.7461 36.118L79.5071 33.9876L79.7359 30.9576C80.0138 27.3121 77.6604 24.0296 74.0322 22.9722L71.0905 22.0885L69.8484 19.3268C68.5736 16.4862 65.6809 14.6555 62.4777 14.6555C61.3663 14.6555 60.8434 14.8291 57.9016 15.3499C56.3 14.3241 54.4369 11.7833 50.4982 11.7833C46.8537 11.7833 44.9089 13.9769 43.0785 15.3499C40.1204 14.8291 39.6628 14.6397 38.5024 14.6397C35.2992 14.6397 32.4065 16.4704 31.1317 19.311L29.906 22.0885L26.9479 22.9407C23.3198 23.998 20.9827 27.2963 21.2442 30.926L21.473 33.9718L19.234 36.0865C16.5537 38.643 16.0634 42.5883 18.041 45.6972ZM38.5515 87.4229L35.9529 81.0157C35.6751 80.3213 34.9397 79.911 34.1879 80.0215L27.2748 81.0315L33.3707 71.2155L36.0673 71.3418L37.9304 73.709C39.434 75.6343 41.8364 76.7863 44.3369 76.7863C44.5984 76.7863 44.8599 76.7705 45.105 76.7548L38.5515 87.4229ZM66.7105 80.0372C65.9587 79.9268 65.2233 80.3371 64.9455 81.0157L62.3633 87.4071L55.8751 76.7548C56.1366 76.7863 56.4144 76.8021 56.6759 76.8021C59.1764 76.8021 61.5625 75.6501 63.0824 73.7405L64.9455 71.3576L67.6257 71.2313L73.6563 81.0472L66.7105 80.0372ZM21.5384 38.3432L23.9245 36.0707L23.9408 36.0549C24.5128 35.4868 24.807 34.7135 24.7579 33.9402L24.5128 30.7051C24.3494 28.543 25.7385 26.6019 27.8958 25.9707L31.05 25.0554C31.8345 24.8344 32.4882 24.2821 32.8151 23.5404L34.1388 20.5893C34.8906 18.9007 36.623 17.8118 38.5188 17.8118C39.532 17.8118 42.0979 18.4588 43.0131 18.5377C43.0621 18.5377 43.1112 18.5377 43.1765 18.5377C44.2715 18.5377 44.8435 18.0801 45.7587 17.3068C47.5728 15.8076 48.7005 14.9396 50.4982 14.9396C52.9987 14.9396 54.0937 16.6282 56.0385 17.9538C56.6759 18.443 57.4767 18.6166 58.016 18.5219C61.3173 17.9538 61.7095 17.8118 62.4777 17.8118C64.3735 17.8118 66.0895 18.9007 66.8576 20.5893L68.1814 23.5404C68.5246 24.2663 69.162 24.8187 69.9464 25.0554L73.1006 25.9707C75.2579 26.6019 76.6471 28.543 76.4837 30.7051L76.2385 33.9402C76.1731 34.7293 76.4673 35.5026 77.0557 36.0707L79.4581 38.359C81.0434 39.874 81.3375 42.2096 80.1772 44.056L78.4121 46.8177C77.9872 47.4963 77.8892 48.3169 78.1343 49.0744L79.1639 52.1676C79.8503 54.2349 78.9841 56.4285 77.0557 57.5332L74.1956 59.1744C73.4765 59.5847 73.0026 60.2791 72.8718 61.0524L72.3162 64.2402C71.973 66.1971 70.3877 67.6963 68.3775 68.0119C68.3121 68.0119 68.2631 68.0277 68.1977 68.0435C68.0833 68.0593 67.9689 68.0751 67.8382 68.0751L64.5696 68.2329C63.7361 68.2644 62.968 68.659 62.4613 69.306L60.4675 71.831C59.5686 72.9673 58.1468 73.6458 56.6596 73.6458C55.9568 73.6458 55.2867 73.5038 54.6494 73.204C54.633 73.204 54.6167 73.1882 54.6003 73.1882C51.5115 71.9257 51.4461 71.7521 50.8578 71.7521H50.1223C49.534 71.7521 49.3869 71.9573 46.3798 73.204C45.7424 73.4723 45.1704 73.6458 44.3206 73.6458C42.8333 73.6458 41.4115 72.9672 40.5126 71.8152L38.5188 69.2902C38.0121 68.6432 37.244 68.2487 36.4105 68.2171C31.8018 67.9804 33.5505 68.0908 32.6353 68.0119C30.6088 67.7121 29.0235 66.2129 28.6803 64.2402L28.1246 61.0682C27.9939 60.2949 27.5199 59.6163 26.8172 59.1902L26.8008 59.1744L23.9245 57.5332C21.996 56.4285 21.1298 54.2191 21.8162 52.1676L22.8458 49.0902C23.1073 48.3327 23.0092 47.5121 22.568 46.8177L20.8029 44.056C19.6426 42.2096 19.9367 39.8582 21.5384 38.3432Z" fill="#C2A38F"/>
<path d="M50.4994 66.3865C63.1162 66.3865 73.3796 56.4758 73.3796 44.2927C73.3796 32.1096 63.1162 22.199 50.4994 22.199C45.9724 22.199 41.6088 23.4772 37.8662 25.8918C37.1144 26.381 36.9183 27.3594 37.4086 28.0854C37.9153 28.8113 38.9285 29.0007 39.6803 28.5272C42.8835 26.4599 46.6261 25.371 50.4994 25.371C61.3185 25.371 70.111 33.8613 70.111 44.3085C70.111 54.7557 61.3185 63.246 50.4994 63.246C39.6803 63.246 30.8877 54.7399 30.8877 44.2927C30.8877 41.6415 31.5251 39.0218 32.1462 37.6172C32.5057 36.8124 32.1135 35.8813 31.28 35.5499C30.4465 35.2185 29.4822 35.5815 29.139 36.3863C28.2075 38.4536 27.6191 41.5626 27.6191 44.2927C27.6191 56.4758 37.8826 66.3865 50.4994 66.3865Z" fill="#C2A38F"/>
<path d="M46.3319 45.8866C47.3778 44.924 48.0642 44.0876 48.4401 43.3301C48.816 42.5568 49.0121 41.7362 49.0121 40.884C49.0121 39.4795 48.4728 38.3432 47.4105 37.5068C46.3809 36.702 44.9754 36.2916 43.2594 36.2916C42.001 36.2916 40.8243 36.4968 39.7947 36.9229C38.7487 37.349 37.8989 37.9487 37.2451 38.7062L37 39.006L39.1246 40.7893L39.3861 40.4737C40.2523 39.4637 41.4453 38.9902 43.0469 38.9902C44.0112 38.9902 44.7629 39.1796 45.2532 39.5584C45.7272 39.9213 45.956 40.4263 45.956 41.0891C45.956 41.5626 45.8416 42.036 45.5964 42.4937C45.3513 42.9671 44.861 43.5668 44.1256 44.2454L37.6537 50.2738V52.2938H49.6822V49.6426H42.2951L46.3319 45.8866Z" fill="#C2A38F"/>
<path d="M61.6773 45.9656V42.6988H58.7682V45.9656H54.0287L61.6609 36.4652H58.2125L50.041 46.5652V48.601H58.7028V52.2938H61.6773V48.601H64.6354V45.9656H61.6773Z" fill="#C2A38F"/>
</g>
<defs>
<clipPath id="clip0">
<rect width="67.3333" height="80.8" fill="white" transform="translate(16.832 11.7833)"/>
</clipPath>
</defs>
</svg>
