<svg width="55" height="65" viewBox="0 0 55 65" fill="none" xmlns="http://www.w3.org/2000/svg">
<g clip-path="url(#clip0)">
<path d="M14.5552 17.3333C15.2672 17.3333 15.8497 16.7708 15.8497 16.0833C15.8497 15.3833 15.2543 14.8333 14.5552 14.8333C13.8433 14.8333 13.2607 15.3958 13.2607 16.0833C13.2607 16.7708 13.8303 17.3333 14.5552 17.3333Z" fill="#C2A38F"/>
<path d="M1.79196 27.1958L3.0994 29.2458L2.33564 31.5458C1.41655 34.2958 2.5816 37.2458 5.14471 38.7208L7.26768 39.9333L7.68192 42.2958C8.04438 44.3458 9.4036 46.0208 11.2677 46.8458L5.46833 56.1833C4.9117 57.0833 5.68839 58.2208 6.77577 58.0583L13.9473 57.0083L16.5881 63.5333C16.9764 64.5083 18.3615 64.6083 18.9052 63.7208L27.0347 50.5208L27.4877 50.3333H27.5266L27.9667 50.5208L36.0185 63.7208C36.5622 64.6208 37.9473 64.5083 38.3356 63.5458L40.9764 57.0208L48.1479 58.0708C49.2224 58.2333 50.012 57.1083 49.4554 56.1958L43.7207 46.8583C45.5978 46.0333 46.957 44.3583 47.3195 42.3083L47.7337 39.9458L49.8567 38.7333C52.4327 37.2583 53.5848 34.3083 52.6657 31.5583L51.902 29.2583L53.2094 27.2083C54.7758 24.7583 54.3745 21.6333 52.2515 19.6083L50.478 17.9208L50.6593 15.5208C50.8793 12.6333 49.0152 10.0333 46.1415 9.19584L43.8114 8.49584L42.8275 6.30834C41.8178 4.05834 39.5266 2.60834 36.9894 2.60834C36.1091 2.60834 35.6949 2.74584 33.3648 3.15834C32.0962 2.34584 30.6204 0.333344 27.5007 0.333344C24.614 0.333344 23.0735 2.07084 21.6237 3.15834C19.2806 2.74584 18.9182 2.59584 17.9991 2.59584C15.4619 2.59584 13.1706 4.04584 12.1609 6.29584L11.19 8.49584L8.84697 9.17084C5.97318 10.0083 4.12205 12.6208 4.32917 15.4958L4.5104 17.9083L2.73694 19.5833C0.613962 21.6083 0.225612 24.7333 1.79196 27.1958ZM18.0379 60.2458L15.9797 55.1708C15.7596 54.6208 15.1771 54.2958 14.5816 54.3833L9.10587 55.1833L13.9343 47.4083L16.0703 47.5083L17.546 49.3833C18.7369 50.9083 20.6398 51.8208 22.6204 51.8208C22.8275 51.8208 23.0347 51.8083 23.2288 51.7958L18.0379 60.2458ZM40.3421 54.3958C39.7466 54.3083 39.1641 54.6333 38.944 55.1708L36.8987 60.2333L31.7596 51.7958C31.9667 51.8208 32.1868 51.8333 32.3939 51.8333C34.3745 51.8333 36.2644 50.9208 37.4683 49.4083L38.944 47.5208L41.067 47.4208L45.8437 55.1958L40.3421 54.3958ZM4.56218 21.3708L6.45215 19.5708L6.46509 19.5583C6.91817 19.1083 7.15118 18.4958 7.11234 17.8833L6.91817 15.3208C6.78872 13.6083 7.88904 12.0708 9.59778 11.5708L12.0962 10.8458C12.7175 10.6708 13.2353 10.2333 13.4942 9.64584L14.5428 7.30834C15.1382 5.97084 16.5104 5.10834 18.012 5.10834C18.8146 5.10834 20.847 5.62084 21.5719 5.68334C21.6107 5.68334 21.6496 5.68334 21.7013 5.68334C22.5686 5.68334 23.0217 5.32084 23.7466 4.70834C25.1835 3.52084 26.0767 2.83334 27.5007 2.83334C29.4813 2.83334 30.3486 4.17084 31.889 5.22084C32.3939 5.60834 33.0282 5.74584 33.4554 5.67084C36.0703 5.22084 36.3809 5.10834 36.9894 5.10834C38.491 5.10834 39.8502 5.97084 40.4586 7.30834L41.5072 9.64584C41.779 10.2208 42.2839 10.6583 42.9052 10.8458L45.4036 11.5708C47.1123 12.0708 48.2127 13.6083 48.0832 15.3208L47.889 17.8833C47.8373 18.5083 48.0703 19.1208 48.5363 19.5708L50.4392 21.3833C51.6949 22.5833 51.9279 24.4333 51.0088 25.8958L49.6107 28.0833C49.2741 28.6208 49.1965 29.2708 49.3907 29.8708L50.2062 32.3208C50.7499 33.9583 50.0638 35.6958 48.5363 36.5708L46.2709 37.8708C45.7013 38.1958 45.3259 38.7458 45.2224 39.3583L44.7822 41.8833C44.5104 43.4333 43.2547 44.6208 41.6625 44.8708C41.6107 44.8708 41.5719 44.8833 41.5201 44.8958C41.4295 44.9083 41.3389 44.9208 41.2353 44.9208L38.6463 45.0458C37.9861 45.0708 37.3777 45.3833 36.9764 45.8958L35.3971 47.8958C34.6852 48.7958 33.5589 49.3333 32.3809 49.3333C31.8243 49.3333 31.2936 49.2208 30.7887 48.9833C30.7758 48.9833 30.7628 48.9708 30.7499 48.9708C28.3033 47.9708 28.2515 47.8333 27.7855 47.8333H27.203C26.7369 47.8333 26.6204 47.9958 24.2386 48.9833C23.7337 49.1958 23.2806 49.3333 22.6075 49.3333C21.4295 49.3333 20.3033 48.7958 19.5913 47.8833L18.012 45.8833C17.6107 45.3708 17.0023 45.0583 16.3421 45.0333C12.6916 44.8458 14.0767 44.9333 13.3518 44.8708C11.7466 44.6333 10.491 43.4458 10.2191 41.8833L9.77901 39.3708C9.67545 38.7583 9.30004 38.2208 8.74341 37.8833L8.73046 37.8708L6.45215 36.5708C4.92464 35.6958 4.23856 33.9458 4.78225 32.3208L5.59778 29.8833C5.8049 29.2833 5.72723 28.6333 5.37771 28.0833L3.97966 25.8958C3.06056 24.4333 3.29357 22.5708 4.56218 21.3708Z" fill="#C2A38F"/>
<path d="M27.5009 43.5833C37.4944 43.5833 45.6239 35.7333 45.6239 26.0833C45.6239 16.4333 37.4944 8.58334 27.5009 8.58334C23.9151 8.58334 20.4588 9.59584 17.4944 11.5083C16.899 11.8958 16.7436 12.6708 17.132 13.2458C17.5333 13.8208 18.3359 13.9708 18.9313 13.5958C21.4685 11.9583 24.4329 11.0958 27.5009 11.0958C36.0705 11.0958 43.0349 17.8208 43.0349 26.0958C43.0349 34.3708 36.0705 41.0958 27.5009 41.0958C18.9313 41.0958 11.9669 34.3583 11.9669 26.0833C11.9669 23.9833 12.4718 21.9083 12.9637 20.7958C13.2485 20.1583 12.9378 19.4208 12.2776 19.1583C11.6174 18.8958 10.8537 19.1833 10.5818 19.8208C9.84395 21.4583 9.37793 23.9208 9.37793 26.0833C9.37793 35.7333 17.5074 43.5833 27.5009 43.5833Z" fill="#C2A38F"/>
<path d="M24.2002 27.3458C25.0287 26.5833 25.5723 25.9208 25.8701 25.3208C26.1678 24.7083 26.3231 24.0583 26.3231 23.3833C26.3231 22.2708 25.896 21.3708 25.0545 20.7083C24.239 20.0708 23.1257 19.7458 21.7665 19.7458C20.7698 19.7458 19.8377 19.9083 19.0222 20.2458C18.1937 20.5833 17.5206 21.0583 17.0028 21.6583L16.8086 21.8958L18.4914 23.3083L18.6986 23.0583C19.3846 22.2583 20.3296 21.8833 21.5982 21.8833C22.362 21.8833 22.9575 22.0333 23.3458 22.3333C23.7212 22.6208 23.9024 23.0208 23.9024 23.5458C23.9024 23.9208 23.8118 24.2958 23.6176 24.6583C23.4235 25.0333 23.0351 25.5083 22.4526 26.0458L17.3264 30.8208V32.4208H26.8539V30.3208H21.0028L24.2002 27.3458Z" fill="#C2A38F"/>
<path d="M36.3555 27.4084V24.8209H34.0513V27.4084H30.2973L36.3426 19.8834H33.6112L27.1387 27.8834V29.4959H33.9995V32.4209H36.3555V29.4959H38.6986V27.4084H36.3555Z" fill="#C2A38F"/>
</g>
<defs>
<clipPath id="clip0">
<rect width="53.3333" height="64" fill="white" transform="translate(0.833984 0.333344)"/>
</clipPath>
</defs>
</svg>
