<svg width="45" height="35" viewBox="0 0 45 35" fill="none" xmlns="http://www.w3.org/2000/svg">
<path d="M29.4796 19.7051C27.7653 18.8919 26.449 17.672 25.5306 16.0456C24.551 14.4817 24.0612 12.6363 24.0612 10.5094C24.0612 7.38159 25.0408 4.84808 27 2.90884C28.9592 0.969614 31.4694 -2.63181e-06 34.5306 -2.89943e-06C37.5918 -3.16706e-06 40.102 0.969613 42.0612 2.90884C44.0204 4.84807 45 7.38158 45 10.5094C45 11.9482 44.8163 13.3869 44.449 14.8257C44.0816 16.2645 43.2551 18.3914 41.9694 21.2064L36.0918 35L25.1633 35L29.4796 19.7051ZM5.41837 19.7051C3.70408 18.8919 2.38775 17.672 1.46939 16.0456C0.489798 14.4817 1.8596e-06 12.6363 1.67366e-06 10.5094C1.40022e-06 7.38159 0.979593 4.84808 2.93878 2.90884C4.89796 0.969616 7.40816 -5.28315e-07 10.4694 -7.95936e-07C13.5306 -1.06356e-06 16.0408 0.969615 18 2.90884C19.9592 4.84808 20.9388 7.38159 20.9388 10.5094C20.9388 11.9482 20.7551 13.3869 20.3878 14.8257C20.0204 16.2645 19.1939 18.3914 17.9082 21.2064L12.0306 35L1.10205 35L5.41837 19.7051Z" fill="#D6D6D6"/>
</svg>
