<svg width="102" height="101" viewBox="0 0 102 101" fill="none" xmlns="http://www.w3.org/2000/svg">
<g clip-path="url(#clip0)">
<path d="M92.8266 36.9749L85.1201 21.7882V15.7653C85.1201 14.8809 84.4033 14.1638 83.5186 14.1638H20.481C19.5966 14.1638 18.8794 14.8809 18.8794 15.7653V21.789L11.1733 36.9749C11.0594 37.1994 11 37.4478 11 37.6996V41.6396C11 46.3213 14.412 50.2189 18.8794 50.9827V84.6325H17.2405C16.356 84.6325 15.6389 85.3497 15.6389 86.234C15.6389 87.1184 16.356 87.8356 17.2405 87.8356H20.4686C20.4726 87.8356 20.4768 87.8363 20.481 87.8363H64.2999H77.1126H83.5189H86.7593C87.6437 87.8363 88.3609 87.1191 88.3609 86.2347C88.3609 85.3503 87.6437 84.6331 86.7593 84.6331H85.1204V50.9827C89.588 50.2189 93 46.3215 93 41.6396V37.6996C93 37.4478 92.9406 37.1994 92.8266 36.9749ZM22.0825 17.3669H81.917V20.5705H70.9115H58.3038H45.6964H33.0885H22.0825V17.3669ZM61.473 37.5379L60.0762 23.7737H69.725L74.0376 37.9379V41.6396C74.0376 45.1013 71.2212 47.9175 67.7594 47.9175C64.2976 47.9175 61.4811 45.1013 61.4811 41.6396V37.6996C61.4811 37.6456 61.4784 37.5917 61.473 37.5379ZM58.278 37.7807V41.6396H58.2778C58.2778 45.1013 55.4616 47.9175 52.0002 47.9175C48.5384 47.9175 45.7219 45.1013 45.7219 41.6396V37.7807L47.1437 23.7737H56.8566L58.278 37.7807ZM43.9242 23.7738L42.527 37.538C42.5214 37.5917 42.5187 37.6456 42.5187 37.6996V41.6396C42.5187 45.1013 39.7025 47.9175 36.2407 47.9175C32.7789 47.9175 29.9627 45.1013 29.9627 41.6396V37.9381L34.2754 23.7738H43.9242ZM14.2031 41.6396V38.0827L21.4643 23.7737H30.9269L26.8289 37.2331C26.783 37.3843 26.7594 37.5415 26.7594 37.6996V41.6396C26.7594 45.1013 23.9429 47.9175 20.481 47.9175C17.0193 47.9175 14.2031 45.1013 14.2031 41.6396ZM75.511 84.6331H65.9015V79.8281V73.4218H67.5032C68.3877 73.4218 69.1048 72.7048 69.1048 71.8202C69.1048 70.9359 68.3877 70.2187 67.5032 70.2187H65.9015V59.008H75.511V84.6331ZM81.917 84.6331H78.7138V57.4064C78.7138 56.5221 77.9968 55.8049 77.1123 55.8049H64.2996H26.8874C26.0027 55.8049 25.2858 56.5221 25.2858 57.4064V79.8281C25.2858 80.7126 26.0027 81.4297 26.8874 81.4297H62.6983V84.6331H22.0825V50.9827C24.6921 50.5367 26.9415 49.0227 28.361 46.9059C30.0638 49.4452 32.9599 51.1206 36.2406 51.1206C39.5212 51.1206 42.4172 49.4452 44.1201 46.9059C45.8231 49.4452 48.7193 51.1206 52 51.1206C55.2803 51.1206 58.1766 49.4454 59.8792 46.9059C61.5822 49.4454 64.4785 51.1206 67.7591 51.1206C71.0398 51.1206 73.936 49.4452 75.6388 46.9059C77.0581 49.0227 79.3075 50.5367 81.917 50.9827V84.6331ZM44.1092 59.008H49.6891L46.6437 62.0529C46.0183 62.6782 46.0183 63.6923 46.6436 64.3179C46.9563 64.6306 47.3662 64.7871 47.7762 64.7871C48.186 64.7871 48.5957 64.6306 48.9085 64.318L54.2191 59.008H62.6982V78.2265H28.489V74.6283L44.1092 59.008ZM28.489 70.0982V59.008H39.5792L28.489 70.0982ZM89.7969 41.6396C89.7969 45.1013 86.9805 47.9175 83.5189 47.9175C80.0571 47.9175 77.2407 45.1013 77.2407 41.6396V37.6996C77.2407 37.5415 77.2173 37.3843 77.1712 37.2331L73.0733 23.7737H82.5357L89.7969 38.0827V41.6396Z" fill="#F8F5F2"/>
<path d="M44.4941 68.0675C44.9025 68.0675 45.3109 67.9123 45.6233 67.6017L45.6501 67.5751C46.2774 66.9516 46.2803 65.9375 45.6568 65.3102C45.033 64.6829 44.0189 64.6798 43.3917 65.3036L43.3649 65.3302C42.7376 65.9537 42.7349 66.968 43.3582 67.5952C43.6713 67.91 44.0826 68.0675 44.4941 68.0675Z" fill="#F8F5F2"/>
<path d="M12.6394 84.6324H12.6016C11.717 84.6324 11 85.3496 11 86.234C11 87.1184 11.717 87.8356 12.6016 87.8356H12.6394C13.5238 87.8356 14.2409 87.1184 14.2409 86.234C14.2409 85.3496 13.5239 84.6324 12.6394 84.6324Z" fill="#F8F5F2"/>
<path d="M91.3991 84.6331H91.3613C90.4768 84.6331 89.7598 85.3503 89.7598 86.2347C89.7598 87.1191 90.4768 87.8363 91.3613 87.8363H91.3991C92.2837 87.8363 93.0007 87.1191 93.0007 86.2347C93.0007 85.3503 92.2837 84.6331 91.3991 84.6331Z" fill="#F8F5F2"/>
</g>
<defs>
<clipPath id="clip0">
<rect width="82" height="82" fill="white" transform="translate(11 10)"/>
</clipPath>
</defs>
</svg>
