<svg width="40" height="40" viewBox="0 0 40 40" fill="none" xmlns="http://www.w3.org/2000/svg">
<path d="M20 8.59863C15.9053 8.59863 12.574 11.93 12.574 16.0246C12.574 20.1193 15.9053 23.4506 20 23.4506C24.0947 23.4506 27.426 20.1193 27.426 16.0246C27.426 11.93 24.0947 8.59863 20 8.59863ZM20 20.3239C17.6294 20.3239 15.7007 18.3953 15.7007 16.0246C15.7007 13.654 17.6294 11.7253 20 11.7253C22.3706 11.7253 24.2993 13.654 24.2993 16.0246C24.2993 18.3953 22.3706 20.3239 20 20.3239Z" fill="#D8D1CA"/>
<path d="M20 0C11.1639 0 3.97534 7.18867 3.97534 16.0246V16.4676C3.97534 20.9363 6.53737 26.1438 11.5905 31.9452C15.2536 36.1508 18.8656 39.0833 19.0175 39.2061L20 40L20.9825 39.2062C21.1344 39.0834 24.7464 36.1509 28.4094 31.9452C33.4625 26.1438 36.0246 20.9364 36.0246 16.4677V16.0247C36.0246 7.18867 28.836 0 20 0ZM32.8978 16.4677C32.8978 24.0196 23.1673 33.1614 20 35.9366C16.8317 33.1605 7.10206 24.0191 7.10206 16.4677V16.0247C7.10206 8.91281 12.8881 3.1268 20 3.1268C27.1118 3.1268 32.8978 8.91281 32.8978 16.0247V16.4677Z" fill="#D8D1CA"/>
</svg>
