<svg width="80" height="80" viewBox="0 0 80 80" fill="none" xmlns="http://www.w3.org/2000/svg">
<g clip-path="url(#clip0)">
<path d="M62.5499 58.3647C62.241 57.8296 61.5568 57.6462 61.0212 57.9551L56.9533 60.3035C56.4181 60.6125 56.2346 61.297 56.5437 61.8322C56.751 62.1912 57.1271 62.392 57.514 62.392C57.7038 62.392 57.8962 62.3435 58.0724 62.2418L62.1403 59.8935C62.6754 59.5844 62.859 58.9 62.5499 58.3647Z" fill="#C2A38F"/>
<path d="M68.6295 44.2998C68.6292 44.2543 68.6265 44.2087 68.6205 44.1631C68.6201 44.1601 68.6194 44.1571 68.619 44.1541C68.6133 44.1133 68.6048 44.0729 68.5946 44.0326C68.5917 44.0212 68.5884 44.0103 68.5853 43.9992C68.576 43.9667 68.5648 43.9345 68.5523 43.9025C68.548 43.8916 68.5441 43.8803 68.5394 43.8695C68.5223 43.8297 68.5034 43.7903 68.4813 43.7518C68.4806 43.7507 68.4799 43.7495 68.4793 43.7483C68.4571 43.71 68.4325 43.6742 68.4067 43.6395C68.3996 43.63 68.3918 43.621 68.3845 43.6119C68.3631 43.585 68.3407 43.5594 68.3172 43.5349C68.3092 43.5266 68.3012 43.5182 68.2929 43.5102C68.2632 43.481 68.2321 43.4535 68.1996 43.4281C68.1972 43.4263 68.1951 43.4242 68.1928 43.4224C68.1564 43.3946 68.1184 43.3694 68.0791 43.3463C68.0762 43.3447 68.0736 43.3424 68.0707 43.3408L55.0723 35.8368V20.8273C55.0723 20.8241 55.0718 20.8211 55.0717 20.8179C55.0713 20.7721 55.0686 20.7263 55.0625 20.6805C55.0622 20.6782 55.0616 20.6759 55.0613 20.6737C55.0556 20.6321 55.0469 20.5908 55.0364 20.5496C55.0337 20.5391 55.0306 20.5285 55.0276 20.5179C55.018 20.4846 55.0066 20.4515 54.9938 20.4188C54.9898 20.4085 54.9861 20.398 54.9818 20.388C54.9643 20.3474 54.9452 20.3071 54.9225 20.2678C54.8999 20.2286 54.8747 20.1921 54.8483 20.1567C54.8417 20.1476 54.8342 20.1391 54.8272 20.1303C54.8055 20.103 54.7827 20.0769 54.7589 20.0522C54.7511 20.0441 54.7432 20.0358 54.7352 20.0279C54.7053 19.9986 54.6741 19.971 54.6416 19.9455C54.6394 19.9437 54.6373 19.9417 54.635 19.9399C54.5985 19.9119 54.5604 19.8868 54.521 19.8636C54.5182 19.8619 54.5157 19.8598 54.513 19.8583L40.9557 12.0311C40.6095 11.8313 40.1828 11.8312 39.8365 12.0311L26.2796 19.8581C26.2769 19.8597 26.2747 19.8616 26.272 19.8632C26.2324 19.8864 26.194 19.9117 26.1572 19.94C26.1554 19.9414 26.1538 19.9429 26.152 19.9444C26.119 19.9701 26.0873 19.9983 26.057 20.0279C26.0491 20.0357 26.0413 20.0437 26.0336 20.0517C26.0098 20.0766 25.9871 20.1026 25.9654 20.1299C25.9583 20.1387 25.9509 20.1474 25.9441 20.1566C25.9177 20.1919 25.8926 20.2285 25.87 20.2676C25.8474 20.3068 25.8282 20.3468 25.8109 20.3873C25.8064 20.3978 25.8026 20.4087 25.7984 20.4193C25.7857 20.4516 25.7746 20.4841 25.7651 20.517C25.762 20.5278 25.7588 20.5387 25.7559 20.5496C25.7456 20.5903 25.737 20.6312 25.7313 20.6723C25.731 20.6751 25.7302 20.6776 25.7299 20.6804C25.7239 20.726 25.7212 20.7717 25.7209 20.8173C25.7209 20.8205 25.7202 20.8238 25.7202 20.827V35.8362L12.7216 43.3404C12.7188 43.342 12.7165 43.3441 12.7138 43.3457C12.6743 43.3688 12.6359 43.3941 12.5993 43.4223C12.5975 43.4236 12.5958 43.4253 12.5941 43.4267C12.561 43.4524 12.5295 43.4805 12.4992 43.5103C12.4911 43.5181 12.4835 43.5262 12.4757 43.5343C12.4519 43.559 12.4292 43.5849 12.4075 43.6122C12.4004 43.6211 12.3928 43.6299 12.386 43.6391C12.3599 43.6739 12.3352 43.7101 12.3128 43.7488C12.3125 43.7493 12.312 43.7499 12.3117 43.7506C12.2893 43.7895 12.2702 43.8292 12.253 43.8695C12.2484 43.8802 12.2445 43.8914 12.2402 43.9023C12.2277 43.9342 12.2166 43.9667 12.2071 43.9992C12.2039 44.0102 12.2008 44.0212 12.1979 44.0324C12.1875 44.0728 12.179 44.1134 12.1734 44.1542C12.1729 44.1571 12.1722 44.16 12.1718 44.163C12.1658 44.2086 12.1631 44.2543 12.1628 44.2999C12.1628 44.3032 12.1621 44.3063 12.1621 44.3095V59.9648H12.1622C12.1622 60.3647 12.3755 60.734 12.7217 60.9339L26.2798 68.7609C26.2825 68.7624 26.2855 68.7634 26.2882 68.765C26.328 68.7876 26.3689 68.8081 26.4116 68.8258C26.4141 68.8268 26.4167 68.8276 26.4193 68.8286C26.4577 68.8442 26.4972 68.8572 26.5377 68.8686C26.5487 68.8717 26.5598 68.8744 26.5709 68.877C26.6038 68.8852 26.6375 68.8917 26.6715 68.8969C26.683 68.8986 26.6945 68.9008 26.7061 68.9021C26.7497 68.9072 26.7941 68.9107 26.8391 68.9107C26.8841 68.9107 26.9284 68.9072 26.9721 68.9021C26.9837 68.9008 26.9951 68.8985 27.0066 68.8969C27.0407 68.8917 27.0742 68.8853 27.1072 68.877C27.1183 68.8742 27.1295 68.8716 27.1406 68.8685C27.1808 68.8573 27.2201 68.8442 27.2583 68.8287C27.2611 68.8276 27.2639 68.8268 27.2667 68.8256C27.3092 68.808 27.3501 68.7875 27.3897 68.765C27.3924 68.7634 27.3954 68.7623 27.3983 68.7607L40.3957 61.2567L53.3931 68.7607C53.396 68.7624 53.399 68.7634 53.4019 68.7651C53.4415 68.7876 53.4823 68.808 53.5247 68.8256C53.5276 68.8268 53.5306 68.8276 53.5335 68.8288C53.5716 68.8443 53.6108 68.8572 53.6509 68.8685C53.6621 68.8716 53.6733 68.8742 53.6845 68.877C53.7173 68.8852 53.751 68.8917 53.7849 68.8969C53.7965 68.8986 53.808 68.9008 53.8196 68.9021C53.8632 68.9072 53.9075 68.9107 53.9526 68.9107C53.9977 68.9107 54.0419 68.9072 54.0856 68.9021C54.0971 68.9008 54.1086 68.8985 54.1202 68.8969C54.1542 68.8917 54.1878 68.8853 54.2207 68.877C54.2318 68.8742 54.2431 68.8716 54.2542 68.8685C54.2943 68.8573 54.3334 68.8443 54.3716 68.8288C54.3745 68.8277 54.3775 68.8268 54.3804 68.8256C54.4228 68.808 54.4636 68.7875 54.5033 68.7651C54.5062 68.7634 54.5092 68.7624 54.5121 68.7607L68.0702 60.9338C68.4165 60.734 68.6298 60.3645 68.6298 59.9647V44.3097C68.6302 44.3063 68.6295 44.3032 68.6295 44.2998ZM58.5063 40.4034L47.1874 46.9383L42.6342 44.3095L53.9529 37.7748L58.5063 40.4034ZM52.8339 35.8365L41.5153 42.3713V29.3016L52.8339 22.7659V35.8365ZM40.396 14.2925L44.9492 16.9212L33.6302 23.4563L29.0773 20.8273L40.396 14.2925ZM26.8391 37.7749L31.3917 40.4033L20.0726 46.9381L15.5195 44.3096L26.8391 37.7749ZM25.7201 65.8537L14.4002 59.3188V46.248L19.2217 49.0314C19.371 49.187 19.5587 49.2934 19.7613 49.3429L25.7201 52.783V65.8537ZM26.8392 50.8446L22.311 48.2304L33.6298 41.6955L38.1578 44.3097L26.8392 50.8446ZM39.2769 59.3188L27.9583 65.8536V52.7829L39.2769 46.248V59.3188ZM39.2769 42.3714L27.9583 35.8367V22.7658L32.7768 25.5482C32.9269 25.7054 33.1162 25.8125 33.3204 25.8621L39.2771 29.3016V42.3714H39.2769ZM35.8685 24.7488L47.1874 18.2134L51.7148 20.8273L40.3962 27.3631L35.8685 24.7488ZM52.8338 65.8534L41.5153 59.3188V46.248L46.3366 49.0315C46.4855 49.1867 46.673 49.2927 46.8753 49.3425L52.8339 52.7827V65.8534H52.8338ZM53.953 50.8446L49.4256 48.2306L60.7445 41.6956L65.2726 44.3097L53.953 50.8446ZM66.3919 59.3188L55.0721 65.8537V52.7829L66.3919 46.248V59.3188Z" fill="#C2A38F"/>
<path d="M64.3818 56.3435C62.9416 56.3435 62.9393 58.5817 64.3818 58.5817C65.822 58.5817 65.8244 56.3435 64.3818 56.3435Z" fill="#C2A38F"/>
</g>
<defs>
<clipPath id="clip0">
<rect width="57.0297" height="57.0297" fill="white" transform="translate(11.8809 11.8812)"/>
</clipPath>
</defs>
</svg>
