<svg width="101" height="101" viewBox="0 0 101 101" fill="none" xmlns="http://www.w3.org/2000/svg">
<path d="M34.6831 72.1271L33.7712 73.0392C33.2705 73.5399 33.2706 74.3518 33.7712 74.8526C34.272 75.3531 35.0839 75.3533 35.5846 74.8526L36.4966 73.9405C36.9973 73.4397 36.9971 72.6278 36.4966 72.1271C35.9956 71.6263 35.1839 71.6265 34.6831 72.1271Z" fill="white"/>
<path d="M29.5372 57.1388H28.2475C27.5394 57.1388 26.9653 57.7129 26.9653 58.421C26.9653 59.1292 27.5394 59.7033 28.2475 59.7033H29.5372C30.2454 59.7033 30.8195 59.1292 30.8195 58.421C30.8195 57.7129 30.2454 57.1388 29.5372 57.1388Z" fill="white"/>
<path d="M63.909 72.1271C63.4082 72.6279 63.4082 73.4398 63.909 73.9405L64.8209 74.8526C65.3218 75.3533 66.1334 75.3533 66.6343 74.8526C67.135 74.3518 67.135 73.5399 66.6343 73.0392L65.7224 72.1271C65.2216 71.6265 64.4097 71.6265 63.909 72.1271Z" fill="white"/>
<path d="M36.4965 42.9017L35.5845 41.9898C35.0838 41.489 34.2719 41.489 33.7713 41.9898C33.2705 42.4905 33.2705 43.3024 33.7713 43.803L34.6832 44.7149C35.184 45.2157 35.9959 45.2157 36.4965 44.7149C36.9972 44.2142 36.9972 43.4023 36.4965 42.9017Z" fill="white"/>
<path d="M48.9205 79.0867V80.3764C48.9205 81.0845 49.4946 81.6586 50.2028 81.6586C50.9109 81.6586 51.485 81.0845 51.485 80.3764V79.0867C51.485 78.3785 50.9109 77.8044 50.2028 77.8044C49.4946 77.8044 48.9205 78.3785 48.9205 79.0867Z" fill="white"/>
<path d="M87.3892 33.7471C89.0332 32.1033 89.0332 29.4284 87.3892 27.7846L81.5163 21.9115C79.8723 20.2677 77.1976 20.2677 75.5536 21.9115C74.0789 23.3864 73.9317 25.6887 75.1031 27.3341L72.5438 29.8934C67.7782 26.1235 62.0423 23.5295 55.7775 22.5534V19.3511H57.3089C59.7649 19.3511 61.763 17.3531 61.763 14.897V11.1875C61.763 8.73139 59.7648 6.73334 57.3087 6.73334H43.0967C40.6406 6.73334 38.6426 8.73139 38.6426 11.1875V14.897C38.6426 17.3531 40.6408 19.3511 43.0967 19.3511H44.628V22.5536C38.3632 23.5297 32.6274 26.1237 27.8618 29.8936L25.3024 27.3343C26.4739 25.6887 26.3265 23.3866 24.8518 21.9117C23.2081 20.2678 20.5332 20.2678 18.8893 21.9117L13.0163 27.7846C11.3723 29.4284 11.3723 32.1033 13.0163 33.7471C14.4994 35.2302 16.8009 35.374 18.442 34.2009L21.1208 36.8797C16.7293 42.8554 14.1307 50.2266 14.1307 58.1944C14.1307 78.0848 30.3125 94.2667 50.2028 94.2667C70.093 94.2667 86.2749 78.0848 86.2749 58.1946C86.2749 50.2268 83.6762 42.8555 79.2847 36.8799L81.9635 34.201C83.5993 35.3701 85.9017 35.2348 87.3892 33.7471ZM77.367 23.7249C77.6891 23.403 78.1121 23.2419 78.535 23.2419C78.958 23.2419 79.381 23.403 79.703 23.7249L85.576 29.5978C86.22 30.2418 86.22 31.2897 85.576 31.9339C84.9308 32.5793 83.8857 32.5794 83.2401 31.9339L77.367 26.0608C76.723 25.4167 76.723 24.3689 77.367 23.7249ZM41.207 14.897V11.1875C41.207 10.1454 42.0547 9.29779 43.0967 9.29779H57.3087C58.3507 9.29779 59.1984 10.1454 59.1984 11.1875V14.897C59.1984 15.939 58.3507 16.7867 57.3087 16.7867H43.0967C42.0548 16.7867 41.207 15.939 41.207 14.897ZM47.1926 19.3511H53.2131V22.2491C52.2201 22.1667 51.2166 22.1224 50.2028 22.1224C49.189 22.1224 48.1854 22.1667 47.1926 22.2491V19.3511ZM14.8297 31.9337C14.1857 31.2897 14.1857 30.2419 14.8297 29.5977L20.7027 23.7247C21.3465 23.0809 22.3945 23.0805 23.0385 23.7247C23.6826 24.3687 23.6826 25.4166 23.0385 26.0606L17.1654 31.9337C16.5202 32.5793 15.4753 32.5793 14.8297 31.9337ZM20.2968 32.4292L23.5338 29.1921L25.9017 31.56C24.7738 32.5899 23.7127 33.6912 22.7226 34.8551L20.2968 32.4292ZM50.2028 91.7022C31.7266 91.7022 16.6951 76.6708 16.6951 58.1946C16.6951 39.7184 31.7266 24.6869 50.2028 24.6869C68.679 24.6869 83.7104 39.7184 83.7104 58.1946C83.7104 76.6708 68.679 91.7022 50.2028 91.7022ZM74.5039 31.56L76.8717 29.1921L80.1087 32.4292L77.6829 34.8551C76.6929 33.6912 75.6315 32.5899 74.5039 31.56Z" fill="white"/>
<path d="M23.3872 58.1946C23.3872 43.4086 35.4165 31.3793 50.2025 31.3793C56.3074 31.3793 62.0583 33.3775 66.8335 37.1582C67.3886 37.5978 68.195 37.5041 68.6347 36.9488C69.0743 36.3935 68.9804 35.5872 68.4253 35.1475C63.1926 31.0047 56.8913 28.8148 50.2027 28.8148C34.0027 28.8148 20.8229 41.9944 20.8229 58.1946C20.8229 64.8652 23.0022 71.1533 27.1251 76.379C27.564 76.9349 28.3703 77.03 28.9261 76.5915C29.482 76.1528 29.5771 75.3465 29.1386 74.7905C25.3758 70.0218 23.3872 64.2831 23.3872 58.1946Z" fill="white"/>
<path d="M71.0423 39.3047C70.4968 39.7562 70.4205 40.5643 70.8721 41.11C74.8355 45.8992 77.0182 51.9667 77.0182 58.1947C77.0182 72.9807 64.9889 85.01 50.2029 85.01C43.985 85.01 37.9252 82.8337 33.1397 78.8817C32.5935 78.4307 31.7855 78.5079 31.3345 79.0538C30.8835 79.5999 30.9606 80.408 31.5067 80.859C36.7505 85.1897 43.3902 87.5745 50.2027 87.5745C66.4027 87.5745 79.5825 74.3947 79.5825 58.1947C79.5825 51.3713 77.1907 44.7232 72.8475 39.4751C72.3962 38.9296 71.5879 38.853 71.0423 39.3047Z" fill="white"/>
<path d="M72.7793 57.344C72.5679 51.6362 70.2234 46.2647 66.1779 42.2192C62.1323 38.1735 56.7609 35.8292 51.0531 35.6178C49.912 35.5716 48.9202 36.4938 48.9202 37.6765V53.8591C47.0495 54.4133 45.6804 56.1467 45.6804 58.1947C45.6804 60.688 47.7089 62.7167 50.2024 62.7167C52.2504 62.7167 53.9838 61.3476 54.5381 59.4769H70.7206C71.885 59.4767 72.8224 58.5077 72.7793 57.344ZM50.2024 60.1521C49.1231 60.1521 48.2449 59.2738 48.2449 58.1945C48.2449 57.1152 49.123 56.237 50.2024 56.237C51.2819 56.237 52.16 57.1151 52.16 58.1945C52.16 59.274 51.2819 60.1521 50.2024 60.1521ZM54.5381 56.9123C54.1043 55.4483 52.9486 54.2925 51.4846 53.8587V38.2067C56.3465 38.5141 60.9029 40.5707 64.3645 44.0324C67.8264 47.4943 69.8831 52.0503 70.1903 56.9123H54.5381Z" fill="white"/>
</svg>
