<svg width="80" height="80" viewBox="0 0 80 80" fill="none" xmlns="http://www.w3.org/2000/svg">
<g clip-path="url(#clip0)">
<path d="M60.8578 22.8383H56.7317L53.4318 17.8879C53.2677 16.4983 52.092 15.4499 50.6927 15.4456H28.5145C27.1153 15.4499 25.9395 16.4983 25.7755 17.8879L22.4756 22.8383H18.3495C14.7787 22.8424 11.8849 25.7361 11.8809 29.3069V60.7261C11.8839 63.2766 13.9508 65.3435 16.5013 65.3465H62.7059C65.2565 65.3435 67.3234 63.2766 67.3264 60.7261V29.3069C67.3223 25.7361 64.4286 22.8424 60.8578 22.8383ZM28.5145 17.2937H50.6927C51.2031 17.2937 51.6168 17.7075 51.6168 18.2178C51.6168 18.7282 51.2031 19.1419 50.6927 19.1419H28.5145C28.0042 19.1419 27.5904 18.7282 27.5904 18.2178C27.5904 17.7075 28.0042 17.2937 28.5145 17.2937ZM26.5083 20.1205C27.0286 20.6746 27.7545 20.9892 28.5145 20.9901H50.6927C51.4528 20.9892 52.1787 20.6746 52.6989 20.1205L54.5111 22.8383H24.6962L26.5083 20.1205ZM60.8578 24.6865C61.4185 24.69 61.9739 24.7965 62.4962 25.0007C62.0308 25.7362 61.7832 26.5884 61.7819 27.4588V44.0924C61.7819 44.6028 61.3681 45.0165 60.8578 45.0165H44.4468C44.8419 44.0449 45.0723 43.0143 45.1288 41.967C45.3902 38.8435 43.093 36.0897 39.9733 35.7867C38.4405 35.6787 36.9325 36.2172 35.8149 37.2717C34.6971 38.3218 34.0619 39.7865 34.0591 41.3201C34.044 42.5865 34.2815 43.8431 34.7577 45.0165H18.3495C17.8391 45.0165 17.4254 44.6028 17.4254 44.0924V27.4588C17.4241 26.5884 17.1765 25.7362 16.7111 25.0007C17.2334 24.7965 17.7887 24.69 18.3495 24.6865H60.8578ZM35.9073 41.3201C35.907 40.297 36.3309 39.3195 37.078 38.6204C37.8251 37.9213 38.8285 37.5631 39.8494 37.6312C41.9431 37.8898 43.4586 39.7558 43.2824 41.858C43.2506 42.4853 43.1404 43.1062 42.9544 43.7062C42.4757 42.8098 41.5438 42.2484 40.5277 42.2442H38.6795C37.664 42.2479 36.7323 42.8081 36.2529 43.7034C36.0139 42.9319 35.8972 42.1277 35.9073 41.3201ZM41.4518 48.7129H37.7554V45.0165C37.7554 44.5062 38.1692 44.0924 38.6795 44.0924H40.5277C41.0381 44.0924 41.4518 44.5062 41.4518 45.0165V48.7129ZM42.3759 50.5611V52.4093H36.8314V50.5611H42.3759ZM37.7554 54.2574H41.4518V57.9538C41.4518 58.9745 40.6244 59.802 39.6036 59.802C38.5829 59.802 37.7554 58.9745 37.7554 57.9538V54.2574ZM65.4782 60.7261C65.4782 62.2572 64.237 63.4984 62.7059 63.4984H16.5013C14.9702 63.4984 13.729 62.2572 13.729 60.7261V29.3069C13.7302 28.0562 14.2403 26.8599 15.142 25.9931C15.4227 26.4307 15.5736 26.9389 15.5772 27.4588V44.0924C15.5772 45.6235 16.8184 46.8647 18.3495 46.8647H35.5376C35.7785 47.4513 35.904 48.0788 35.9073 48.7129V48.9698C35.3373 49.2973 34.9852 49.9037 34.9832 50.5611V52.4093C34.9852 53.0666 35.3373 53.673 35.9073 54.0005V57.9538C35.9073 59.9953 37.5622 61.6502 39.6036 61.6502C41.6451 61.6502 43.3 59.9953 43.3 57.9538V54.0005C43.8699 53.673 44.2221 53.0666 44.2241 52.4093V50.5611C44.2221 49.9037 43.8699 49.2973 43.3 48.9698V48.7129C43.3034 48.0788 43.4289 47.4513 43.6696 46.8647H60.8578C62.3888 46.8647 63.63 45.6235 63.63 44.0924V27.4588C63.6337 26.9389 63.7846 26.4307 64.0653 25.9931C64.967 26.8599 65.4771 28.0562 65.4782 29.3069V60.7261Z" fill="#C2A38F"/>
<path d="M18.3494 59.802H16.5012C15.9909 59.802 15.5771 60.2157 15.5771 60.7261C15.5771 61.2364 15.9909 61.6502 16.5012 61.6502H18.3494C18.8598 61.6502 19.2735 61.2364 19.2735 60.7261C19.2735 60.2157 18.8598 59.802 18.3494 59.802Z" fill="#C2A38F"/>
<path d="M33.1353 59.802H22.0462C21.5358 59.802 21.1221 60.2157 21.1221 60.7261C21.1221 61.2364 21.5358 61.6502 22.0462 61.6502H33.1353C33.6456 61.6502 34.0594 61.2364 34.0594 60.7261C34.0594 60.2157 33.6456 59.802 33.1353 59.802Z" fill="#C2A38F"/>
<path d="M62.7059 59.802H60.8577C60.3473 59.802 59.9336 60.2157 59.9336 60.7261C59.9336 61.2364 60.3473 61.6502 60.8577 61.6502H62.7059C63.2162 61.6502 63.63 61.2364 63.63 60.7261C63.63 60.2157 63.2162 59.802 62.7059 59.802Z" fill="#C2A38F"/>
<path d="M57.1616 59.802H46.0725C45.5622 59.802 45.1484 60.2157 45.1484 60.7261C45.1484 61.2364 45.5622 61.6502 46.0725 61.6502H57.1616C57.672 61.6502 58.0857 61.2364 58.0857 60.7261C58.0857 60.2157 57.672 59.802 57.1616 59.802Z" fill="#C2A38F"/>
</g>
<defs>
<clipPath id="clip0">
<rect width="55.4455" height="55.4455" fill="white" transform="translate(11.8809 12.6733)"/>
</clipPath>
</defs>
</svg>
