<svg width="20" height="20" viewBox="0 0 20 20" fill="none" xmlns="http://www.w3.org/2000/svg">
<path d="M19.2831 7.27579L13.3323 6.41094L10.6722 1.01798C10.5995 0.870319 10.48 0.750788 10.3323 0.678131C9.96199 0.495319 9.51199 0.647663 9.32684 1.01798L6.66668 6.41094L0.715901 7.27579C0.551838 7.29922 0.401838 7.37657 0.286995 7.49376C0.148155 7.63646 0.0716479 7.82844 0.0742847 8.02753C0.0769216 8.22661 0.158487 8.4165 0.301057 8.55548L4.60653 12.7531L3.58934 18.6805C3.56548 18.8184 3.58074 18.9602 3.63338 19.0898C3.68602 19.2195 3.77394 19.3318 3.88715 19.414C4.00037 19.4962 4.13437 19.5451 4.27395 19.5551C4.41352 19.565 4.5531 19.5357 4.67684 19.4703L9.99949 16.6719L15.3222 19.4703C15.4675 19.5477 15.6362 19.5734 15.7979 19.5453C16.2057 19.475 16.48 19.0883 16.4097 18.6805L15.3925 12.7531L19.6979 8.55548C19.8151 8.44063 19.8925 8.29063 19.9159 8.12657C19.9792 7.71641 19.6932 7.33672 19.2831 7.27579Z" fill="#C2A38F"/>
</svg>
