<svg width="101" height="101" viewBox="0 0 101 101" fill="none" xmlns="http://www.w3.org/2000/svg">
<g clip-path="url(#clip0)">
<path d="M37.5901 32.9078C37.3249 32.6426 36.957 32.4901 36.582 32.4901C36.2071 32.4901 35.8392 32.6426 35.574 32.9078C35.309 33.173 35.1562 33.5409 35.1562 33.9158C35.1562 34.2908 35.3088 34.6587 35.574 34.9239C35.8392 35.1892 36.2071 35.3416 36.582 35.3416C36.957 35.3416 37.3249 35.1891 37.5901 34.9239C37.8551 34.6587 38.0078 34.2908 38.0078 33.9158C38.0078 33.5409 37.8553 33.173 37.5901 32.9078Z" fill="#C2A38F"/>
<path d="M87.083 20.9668L85.32 19.2019L87.0824 17.4395C87.6392 16.8827 87.6392 15.9799 87.0824 15.423C86.5255 14.8662 85.623 14.8662 85.0659 15.423L83.3045 17.1842L81.5675 15.4451C81.3001 15.1776 80.9377 15.027 80.5596 15.0269L56.4277 15.0135C56.4262 15.0135 56.425 15.0135 56.4237 15.0135C54.5181 15.0135 52.7266 15.7555 51.3791 17.103L39.337 29.1451C38.7802 29.7019 38.7802 30.6047 39.337 31.1616C39.8939 31.7184 40.7964 31.7184 41.3534 31.1616L53.3956 19.1195C54.2046 18.3105 55.2798 17.8652 56.4237 17.8652C56.4245 17.8652 56.4254 17.8652 56.4261 17.8652L79.9673 17.8783L81.2884 19.2009L75.9982 24.4911C73.7549 23.1474 70.7974 23.4404 68.8663 25.3712C67.7632 26.4745 67.1557 27.9412 67.1557 29.5013C67.1557 31.0614 67.7632 32.5281 68.8663 33.6313C70.0049 34.77 71.5007 35.3393 72.9965 35.3393C74.4922 35.3393 75.9878 34.77 77.1266 33.6313C79.0545 31.7033 79.3495 28.7516 78.0129 26.5094L83.3038 21.2185L84.6483 22.5646L84.6352 46.0738C84.6345 47.2168 84.1891 48.2914 83.3808 49.0996L48.5884 83.8917C47.7796 84.7005 46.7041 85.146 45.5604 85.146C44.4166 85.146 43.3411 84.7005 42.5323 83.8917L18.606 59.9652C17.797 59.1564 17.3516 58.0809 17.3516 56.9372C17.3516 55.7934 17.797 54.7179 18.606 53.9091L33.975 38.54C34.5318 37.9833 34.5318 37.0805 33.975 36.5235C33.4181 35.9668 32.5156 35.9668 31.9585 36.5235L16.5895 51.8926C15.2421 53.24 14.5 55.0316 14.5 56.9372C14.5 58.8427 15.2421 60.6344 16.5895 61.9817L40.5158 85.9082C41.9067 87.2989 43.7334 87.9944 45.5604 87.9944C47.3874 87.9944 49.2141 87.2989 50.6049 85.9082L85.3971 51.1158C86.7435 49.7695 87.4855 47.9793 87.4866 46.0751L87.5 21.9752C87.5003 21.597 87.3502 21.2343 87.083 20.9668ZM75.1101 31.6147C74.5455 32.1793 73.7948 32.4903 72.9965 32.4903C72.1979 32.4903 71.4474 32.1793 70.8828 31.6147C69.7172 30.4493 69.7172 28.5529 70.8828 27.3874C71.4657 26.8046 72.2309 26.5133 72.9965 26.5133C73.2848 26.5133 73.573 26.5548 73.8516 26.6375L72.2059 28.2831C71.6492 28.8399 71.6492 29.7427 72.2059 30.2996C72.4844 30.578 72.8492 30.7172 73.2141 30.7172C73.579 30.7172 73.9438 30.578 74.2223 30.2996L75.8633 28.6585C76.1598 29.6735 75.909 30.8159 75.1101 31.6147Z" fill="#C2A38F"/>
<path d="M75.4031 43.71L58.7872 27.0939C56.586 24.8928 53.0043 24.8931 50.8035 27.0939L24.5091 53.3885C23.4427 54.4547 22.8555 55.8723 22.8555 57.3802C22.8555 58.8881 23.4426 60.3059 24.5089 61.3721L41.125 77.9879C42.1913 79.0542 43.6089 79.6415 45.1168 79.6415C46.6247 79.6415 48.0425 79.0544 49.1085 77.988L75.4031 51.6935C76.4694 50.6271 77.0566 49.2096 77.0566 47.7017C77.0566 46.1938 76.4694 44.7762 75.4031 43.71ZM73.3866 49.677L47.0922 75.9718C46.5646 76.4994 45.863 76.79 45.1169 76.79C44.3708 76.79 43.6692 76.4994 43.1416 75.9717L26.5254 59.3558C25.9977 58.8281 25.7072 58.1266 25.7072 57.3804C25.707 56.6341 25.9977 55.9325 26.5254 55.4049L52.82 29.1104C53.3646 28.5657 54.0799 28.2934 54.7954 28.2934C55.5107 28.2934 56.2262 28.5659 56.7707 29.1104L73.3866 45.7263C73.9143 46.254 74.2049 46.9555 74.2049 47.7017C74.2049 48.4478 73.9143 49.1495 73.3866 49.677Z" fill="#C2A38F"/>
<path d="M60.9918 43.5273C61.5486 42.9705 61.5486 42.0677 60.9918 41.5108C60.4349 40.9541 59.5324 40.9541 58.9754 41.5108L58.1544 42.3318C55.9623 40.9777 53.1495 41.1595 51.3714 42.9373C50.3347 43.974 49.8043 45.3818 49.8779 46.9013C49.949 48.3687 50.5809 49.7695 51.657 50.8456C51.6571 50.8457 51.6572 50.8457 51.6572 50.8458C52.804 51.9932 52.932 53.7315 51.9425 54.721C50.9526 55.7106 49.214 55.5824 48.0668 54.4355C46.9197 53.2882 46.7916 51.5496 47.7813 50.5598C48.338 50.0031 48.338 49.1003 47.7813 48.5433C47.2243 47.9866 46.3218 47.9866 45.7648 48.5433C43.9868 50.3213 43.8052 53.1341 45.1592 55.3264L44.1852 56.3003C43.6284 56.8571 43.6284 57.7599 44.1852 58.3168C44.4643 58.5955 44.8292 58.7347 45.194 58.7347C45.559 58.7347 45.9238 58.5954 46.2022 58.3171L47.1769 57.3424C48.1347 57.934 49.2106 58.2337 50.2674 58.2337C51.6289 58.2335 52.9581 57.7384 53.9592 56.7375C56.0602 54.6363 55.9325 51.0897 53.6747 48.8305C53.6743 48.8301 53.674 48.8296 53.6736 48.8292C53.0996 48.2552 52.7631 47.5216 52.7263 46.7633C52.6922 46.0572 52.927 45.4146 53.388 44.9538C54.3775 43.9642 56.1158 44.0922 57.2631 45.239C57.2633 45.2391 57.2633 45.2392 57.2634 45.2394C57.2636 45.2395 57.2637 45.2395 57.2637 45.2395C58.4106 46.3869 58.5385 48.1252 57.5489 49.1148C56.9921 49.6716 56.9921 50.5744 57.5489 51.1313C57.8273 51.4097 58.1922 51.5489 58.557 51.5489C58.9219 51.5489 59.2867 51.4097 59.5652 51.1313C61.3431 49.3532 61.5249 46.5404 60.1709 44.3483L60.9918 43.5273Z" fill="#C2A38F"/>
<path d="M46.5617 67.1646L39.2387 59.8415C38.682 59.2852 37.7795 59.2849 37.2223 59.8415C36.6655 60.3983 36.6655 61.3011 37.2223 61.858L44.5454 69.1811C44.8238 69.4594 45.1887 69.5987 45.5535 69.5987C45.9184 69.5987 46.2832 69.4594 46.5617 69.1811C47.1185 68.6244 47.1185 67.7215 46.5617 67.1646Z" fill="#C2A38F"/>
<path d="M35.3321 55.9356C35.067 55.6706 34.7005 55.5179 34.3242 55.5179C33.9492 55.5179 33.5828 55.6704 33.3162 55.9356C33.051 56.2008 32.8984 56.5687 32.8984 56.9451C32.8984 57.32 33.0509 57.6879 33.3162 57.9531C33.5814 58.2183 33.9492 58.3708 34.3242 58.3708C34.7006 58.3708 35.067 58.2183 35.3321 57.9531C35.5987 57.6865 35.7513 57.32 35.7513 56.9451C35.7513 56.5687 35.5987 56.2022 35.3321 55.9356Z" fill="#C2A38F"/>
</g>
<defs>
<clipPath id="clip0">
<rect width="73" height="73" fill="white" transform="translate(14.5 15)"/>
</clipPath>
</defs>
</svg>
