<svg width="101" height="101" viewBox="0 0 101 101" fill="none" xmlns="http://www.w3.org/2000/svg">
<path d="M50.7498 19.2545C49.9486 19.2545 49.3046 19.8997 49.3046 20.6997C49.3046 21.4443 49.8647 22.0639 50.6051 22.1374C51.4622 22.2224 52.195 21.5548 52.195 20.6997C52.195 19.8986 51.5498 19.2545 50.7498 19.2545Z" fill="#C2A38F"/>
<path d="M79.6822 22.1463C75.6939 22.1463 72.4491 18.9016 72.4491 14.9133C72.4491 14.1145 71.8013 13.4667 71.0025 13.4667H30.4973C29.6985 13.4667 29.0507 14.1145 29.0507 14.9133C29.0507 18.9016 25.8059 22.1463 21.8176 22.1463C21.0188 22.1463 20.371 22.7941 20.371 23.593V47.2003C20.371 65.5979 32.3627 82.0832 50.3344 87.4724C50.47 87.5129 50.6098 87.5333 50.7499 87.5333C50.8899 87.5333 51.0301 87.5129 51.1655 87.4723C68.7479 82.1981 81.1288 66.0003 81.1288 47.2003V23.593C81.1288 22.7941 80.481 22.1463 79.6822 22.1463ZM78.2356 47.2003C78.2356 64.4798 67.2093 79.4441 50.7499 84.574C34.4216 79.4851 23.2642 64.3852 23.2642 47.2003V24.9366C27.6924 24.3004 31.2047 20.7881 31.8409 16.3599H69.6589C70.2951 20.7881 73.8073 24.3004 78.2356 24.9366V47.2003Z" fill="#C2A38F"/>
<path d="M74.4762 26.8464C71.4594 25.5252 69.0704 23.1361 67.7492 20.1193C67.5186 19.5931 66.9987 19.2531 66.4241 19.2531H56.5336C55.7347 19.2531 55.0869 19.9009 55.0869 20.6997C55.0869 21.4985 55.7347 22.1463 56.5336 22.1463H65.5094C67.0377 25.1381 69.4575 27.5577 72.4492 29.0862V47.2003C72.4492 61.3573 63.9505 73.5725 50.75 78.4622C37.5495 73.5723 29.0508 61.3573 29.0508 47.2003V29.0862C32.0425 27.5577 34.4621 25.1381 35.9906 22.1463H44.9664C45.7653 22.1463 46.413 21.4985 46.413 20.6997C46.413 19.9009 45.7653 19.2531 44.9664 19.2531H35.0759C34.5013 19.2531 33.9814 19.5932 33.7508 20.1193C32.4296 23.1361 30.0405 25.5252 27.0238 26.8464C26.4976 27.077 26.1575 27.597 26.1575 28.1715V47.2003C26.1575 62.7098 35.7502 76.227 50.2674 81.3644C50.4235 81.4196 50.5867 81.4473 50.75 81.4473C50.9133 81.4473 51.0765 81.4196 51.2326 81.3644C65.7376 76.2313 75.3424 62.7224 75.3424 47.2003V28.1715C75.3424 27.5969 75.0023 27.077 74.4762 26.8464Z" fill="#C2A38F"/>
<path d="M50.75 34.5872C43.571 34.5872 37.7305 40.4278 37.7305 47.6068C37.7305 54.7857 43.571 60.6263 50.75 60.6263C57.929 60.6263 63.7695 54.7857 63.7695 47.6068C63.7695 40.4278 57.929 34.5872 50.75 34.5872ZM50.75 57.7331C45.1664 57.7331 40.6237 53.1904 40.6237 47.6068C40.6237 42.0231 45.1664 37.4804 50.75 37.4804C56.3336 37.4804 60.8763 42.0231 60.8763 47.6068C60.8763 53.1904 56.3336 57.7331 50.75 57.7331Z" fill="#C2A38F"/>
<path d="M57.5595 43.6905C56.9944 43.1257 56.0787 43.1257 55.5135 43.6905L49.3035 49.9006L47.4332 48.0305C46.8681 47.4657 45.9524 47.4657 45.3872 48.0305C44.8223 48.5954 44.8223 49.5114 45.3872 50.0764L48.2804 52.9696C48.5631 53.2519 48.9332 53.3932 49.3035 53.3932C49.6738 53.3932 50.0439 53.2519 50.3264 52.9695L57.5595 45.7364C58.1244 45.1715 58.1244 44.2555 57.5595 43.6905Z" fill="#C2A38F"/>
</svg>
