<svg width="102" height="101" viewBox="0 0 102 101" fill="none" xmlns="http://www.w3.org/2000/svg">
<g clip-path="url(#clip0)">
<path d="M68.1049 70.9525C68.635 70.3782 69.1373 69.7791 69.6128 69.1599H73.2646C78.109 69.1599 82.6633 67.2734 86.0883 63.8483C90.0831 59.8557 91.9651 54.324 91.2517 48.6716C90.8551 45.5305 88.1629 43.1617 84.9892 43.1617H75.161V37.127C75.161 36.2554 74.4544 35.5488 73.5829 35.5488H69.2775C68.4059 35.5488 67.6993 36.2554 67.6993 37.127C67.6993 37.9986 68.4059 38.7051 69.2775 38.7051H72.0048V43.1628H24.5854V38.7051H55.0741C55.9456 38.7051 56.6522 37.9986 56.6522 37.127C56.6522 36.2554 55.9456 35.5488 55.0741 35.5488H23.0073C22.1358 35.5488 21.4291 36.2554 21.4291 37.127V52.7943C21.3706 60.7612 25.121 68.5943 31.2997 73.6184H12.1783C11.4797 73.6184 10.8642 74.0778 10.6653 74.7475C10.4665 75.4173 10.7319 76.138 11.3174 76.5191L19.0897 81.5782C21.9144 83.4168 25.189 84.3887 28.5596 84.3887H68.0306C71.401 84.3887 74.6756 83.4168 77.5005 81.5782L85.2728 76.5191C85.8582 76.138 86.1237 75.4173 85.9248 74.7475C85.726 74.0778 85.1105 73.6184 84.4119 73.6184H65.28C66.2823 72.7997 67.2295 71.9074 68.1049 70.9525ZM84.9892 46.3178C86.5765 46.3178 87.9224 47.4997 88.1203 49.0668C88.7106 53.744 87.1569 58.3179 83.8567 61.6161C81.0276 64.4453 77.2658 66.0034 73.2646 66.0034H71.6956C72.268 64.9855 72.7735 63.9304 73.21 62.8472H73.2646C79.764 62.8472 85.0679 57.5581 85.088 51.0571C85.0892 50.6378 84.9235 50.2351 84.6275 49.9381C84.3314 49.6411 83.9291 49.4741 83.5098 49.4741H75.161V46.3178H84.9892ZM75.161 52.6304H81.7816C81.0855 56.3169 78.0446 59.1869 74.2798 59.6295C74.8669 57.4053 75.1702 55.1074 75.161 52.8058V52.6304ZM75.7787 78.9327C73.4674 80.437 70.7882 81.2322 68.0306 81.2322H28.5596C25.802 81.2322 23.1228 80.437 20.8115 78.9327L17.4956 76.7745H79.0944L75.7787 78.9327ZM62.1393 72.0549C61.3429 72.6291 60.5068 73.1517 59.6515 73.6184H36.9387C36.0832 73.1516 35.2463 72.6284 34.4424 72.0488C28.3071 67.6868 24.5302 60.3179 24.5854 52.8058V46.3189H72.0048V52.8122C72.0278 58.6733 69.7611 64.505 65.7819 68.8157C64.6791 70.0188 63.4538 71.1084 62.1393 72.0549Z" fill="white"/>
<path d="M62.1758 38.7052C63.0474 38.7052 63.754 37.9986 63.754 37.1271C63.754 36.2555 63.0474 35.5489 62.1758 35.5489C61.3043 35.5489 60.5977 36.2555 60.5977 37.1271C60.5977 37.9986 61.3043 38.7052 62.1758 38.7052Z" fill="white"/>
<path d="M46.0851 30.8145C46.0851 31.6861 46.7918 32.3926 47.6632 32.3926C48.5348 32.3926 49.2414 31.6861 49.2414 30.8145C49.384 29.1085 50.5653 28.9059 50.5037 26.6059C50.565 24.3042 49.3844 24.1056 49.2412 22.3975C49.3842 20.6894 50.5653 20.491 50.5039 18.1896C50.5039 17.318 49.7973 16.6115 48.9258 16.6115C48.0543 16.6115 47.3476 17.318 47.3476 18.1896C47.2048 19.8951 46.0237 20.0979 46.0853 22.3975C46.0241 24.6992 47.2048 24.8979 47.3478 26.6061C47.2051 28.3144 46.0239 28.5126 46.0851 30.8145Z" fill="white"/>
<path d="M58.711 30.8147C58.711 31.6863 59.4177 32.3928 60.2892 32.3928C61.1606 32.3928 61.8673 31.6863 61.8673 30.8147C61.8673 30.2002 62.003 29.9739 62.2735 29.523C62.6349 28.9206 63.1298 28.0957 63.1298 26.6058C63.1036 24.8145 62.5557 24.2412 62.047 23.2867C61.6667 22.5024 60.7222 22.1748 59.9387 22.5549C59.1543 22.9351 58.8267 23.8791 59.2067 24.6633C59.5454 25.3956 59.9967 25.7301 59.9735 26.6057C59.9735 27.2213 59.8377 27.4479 59.567 27.8991C59.2058 28.5013 58.711 29.3259 58.711 30.8147Z" fill="white"/>
<path d="M33.4609 30.8146C33.4609 31.6862 34.1674 32.3928 35.039 32.3928C35.9105 32.3928 36.6172 31.6862 36.6172 30.8146C36.6172 30.2001 36.7529 29.9738 37.0234 29.5229C37.3848 28.9206 37.8797 28.0957 37.8797 26.6058C37.8535 24.8145 37.3055 24.2411 36.7969 23.2867C36.4164 22.5023 35.4719 22.1747 34.6885 22.5549C33.9042 22.9351 33.5766 23.8791 33.9566 24.6633C34.2953 25.3955 34.7466 25.7301 34.7234 26.6056C34.7234 27.2213 34.5875 27.4479 34.3169 27.8991C33.9557 28.5013 33.4609 29.3258 33.4609 30.8146Z" fill="white"/>
</g>
<defs>
<clipPath id="clip0">
<rect width="80.8" height="80.8" fill="white" transform="translate(10.6 10.1)"/>
</clipPath>
</defs>
</svg>
