<svg width="101" height="101" viewBox="0 0 101 101" fill="none" xmlns="http://www.w3.org/2000/svg">
<path d="M79.1875 51C79.1875 44.4937 76.7486 38.5471 72.739 34.0231C72.7316 33.9949 72.7249 33.9667 72.7154 33.9387L69.4558 24.1596C69.1412 23.2163 68.4865 22.4611 67.6562 22.0061V13.8438C67.6562 11.7244 65.9318 10 63.8125 10H43.3125C41.1932 10 39.4688 11.7244 39.4688 13.8438V22.006C38.6385 22.4611 37.9836 23.2163 37.6692 24.1596L34.4096 33.9387C34.4003 33.9667 34.3934 33.9949 34.386 34.0231C32.0263 36.6856 30.2104 39.8403 29.1161 43.3125H26.6562C24.5367 43.3125 22.8125 45.0367 22.8125 47.1562V54.8438C22.8125 56.9633 24.5367 58.6875 26.6562 58.6875H29.1161C30.2104 62.16 32.0265 65.3149 34.3864 67.9775C34.3937 68.0056 34.4004 68.0336 34.4097 68.0614L37.6694 77.8406C37.9838 78.7837 38.6383 79.5389 39.4686 79.994V88.1562C39.4686 90.2756 41.193 92 43.3123 92H63.8123C65.9317 92 67.6561 90.2756 67.6561 88.1562V79.9942C68.4867 79.539 69.1415 78.7837 69.4559 77.8404L72.7157 68.0613C72.7252 68.0331 72.7321 68.0046 72.7395 67.9762C76.749 63.4525 79.1875 57.5062 79.1875 51ZM40.1001 24.97C40.2748 24.4459 40.7633 24.0938 41.3157 24.0938H57.4058C58.1133 24.0938 58.687 23.5201 58.687 22.8125C58.687 22.1049 58.1133 21.5312 57.4058 21.5312H42.0312V13.8438C42.0312 13.1373 42.6061 12.5625 43.3125 12.5625H63.8125C64.5189 12.5625 65.0938 13.1373 65.0938 13.8438V21.5312H62.5314C61.8238 21.5312 61.2502 22.1049 61.2502 22.8125C61.2502 23.5201 61.8238 24.0938 62.5314 24.0938H65.8093C66.3617 24.0938 66.8502 24.4458 67.0249 24.9698L68.8509 30.4478C64.5801 27.2626 59.2876 25.375 53.5625 25.375C47.8374 25.375 42.5449 27.2626 38.2741 30.4478L40.1001 24.97ZM26.6562 56.125C25.9498 56.125 25.375 55.5502 25.375 54.8438V47.1562C25.375 46.4498 25.9498 45.875 26.6562 45.875H28.4527C28.1151 47.5315 27.9375 49.2453 27.9375 51C27.9375 52.7547 28.1151 54.4685 28.4527 56.125H26.6562ZM53.5625 27.9375C66.2792 27.9375 76.625 38.2833 76.625 51C76.625 63.7167 66.2792 74.0625 53.5625 74.0625C40.8458 74.0625 30.5 63.7167 30.5 51C30.5 38.2833 40.8458 27.9375 53.5625 27.9375ZM67.0251 77.0302C66.8503 77.5542 66.3619 77.9062 65.8097 77.9062H62.5317C61.8242 77.9062 61.2505 78.4799 61.2505 79.1875C61.2505 79.8951 61.8242 80.4688 62.5317 80.4688H65.0938V88.1562C65.0938 88.8627 64.5189 89.4375 63.8125 89.4375H43.3125C42.6061 89.4375 42.0312 88.8627 42.0312 88.1562V80.4688H57.4061C58.1137 80.4688 58.6873 79.8951 58.6873 79.1875C58.6873 78.4799 58.1137 77.9062 57.4061 77.9062H41.316C40.7636 77.9062 40.2751 77.5542 40.1004 77.0302L38.2745 71.5525C42.5452 74.7374 47.8376 76.625 53.5625 76.625C59.2879 76.625 64.5804 74.7372 68.8512 71.5519L67.0251 77.0302Z" fill="#C2A38F"/>
<path d="M53.5625 71.5C64.8663 71.5 74.0625 62.3038 74.0625 51C74.0625 46.522 72.6445 42.2676 69.9615 38.6968C69.5365 38.1311 68.7333 38.0171 68.1675 38.4421C67.6018 38.8672 67.4878 39.6704 67.9128 40.2362C70.0022 43.0169 71.2119 46.2728 71.4528 49.7188H70.2188C69.5112 49.7188 68.9375 50.2924 68.9375 51C68.9375 51.7076 69.5112 52.2812 70.2188 52.2812H71.4537C70.8245 61.1529 63.7154 68.262 54.8438 68.8912V67.6562C54.8438 66.9487 54.2701 66.375 53.5625 66.375C52.8549 66.375 52.2812 66.9487 52.2812 67.6562V68.8912C43.4096 68.262 36.3005 61.1529 35.6713 52.2812H36.9062C37.6138 52.2812 38.1875 51.7076 38.1875 51C38.1875 50.2924 37.6138 49.7188 36.9062 49.7188H35.6713C36.3005 40.8471 43.4096 33.738 52.2812 33.1088V34.3438C52.2812 35.0513 52.8549 35.625 53.5625 35.625C54.2701 35.625 54.8438 35.0513 54.8438 34.3438V33.1097C58.289 33.3505 61.5442 34.5598 64.3245 36.6482C64.89 37.073 65.6934 36.9593 66.1184 36.3933C66.5433 35.8274 66.4293 35.0244 65.8635 34.5994C62.2933 31.9175 58.0397 30.5 53.5625 30.5C42.2587 30.5 33.0625 39.6962 33.0625 51C33.0625 62.3038 42.2587 71.5 53.5625 71.5Z" fill="#C2A38F"/>
<path d="M53.5625 38.1875C52.8549 38.1875 52.2812 38.7612 52.2812 39.4688V51C52.2812 51.0107 52.2825 51.021 52.2829 51.0317C52.2835 51.0577 52.2846 51.0836 52.2869 51.1095C52.2883 51.127 52.2904 51.1441 52.2926 51.1613C52.2957 51.1853 52.2992 51.2092 52.3035 51.2332C52.307 51.2522 52.311 51.2711 52.3155 51.2899C52.3205 51.311 52.3258 51.3322 52.3319 51.3531C52.3378 51.3741 52.3445 51.3946 52.3516 51.4151C52.3578 51.4335 52.3644 51.4518 52.3716 51.4701C52.3804 51.4923 52.39 51.5143 52.3999 51.5359C52.4075 51.5521 52.415 51.5681 52.4231 51.5839C52.4348 51.6067 52.4473 51.6288 52.4603 51.6507C52.4659 51.6602 52.4704 51.6699 52.4762 51.6792L58.8824 61.9292C59.1255 62.3181 59.5431 62.5316 59.9702 62.5316C60.2021 62.5316 60.4369 62.4686 60.648 62.3367C61.2481 61.9616 61.4303 61.1712 61.0554 60.5711L54.8438 50.6324V39.4688C54.8438 38.7612 54.2701 38.1875 53.5625 38.1875Z" fill="#C2A38F"/>
</svg>
