<svg width="56" height="56" viewBox="0 0 56 56" fill="none" xmlns="http://www.w3.org/2000/svg">
<g clip-path="url(#clip0)">
<path d="M21.7577 51.3045C21.9611 51.1011 22.0781 50.8189 22.0781 50.5312C22.0781 50.2436 21.9612 49.9614 21.7577 49.758C21.5531 49.5545 21.2721 49.4375 20.9833 49.4375C20.6956 49.4375 20.4134 49.5545 20.2101 49.758C20.0067 49.9614 19.8906 50.2436 19.8906 50.5312C19.8906 50.8189 20.0067 51.1011 20.2101 51.3045C20.4145 51.508 20.6956 51.625 20.9833 51.625C21.272 51.625 21.5531 51.508 21.7577 51.3045Z" fill="#C2A38F"/>
<path d="M17.293 4.375C16.689 4.375 16.1992 4.86467 16.1992 5.46875C16.1992 6.07283 16.689 6.5625 17.293 6.5625H24.7027C25.3067 6.5625 25.7964 6.07283 25.7964 5.46875C25.7964 4.86467 25.3067 4.375 24.7027 4.375H17.293Z" fill="#C2A38F"/>
<path d="M42.235 35.0326C39.6241 35.0326 37.5 37.1567 37.5 39.7674C37.5 42.3783 39.6241 44.5024 42.235 44.5024C44.8457 44.5024 46.9698 42.3783 46.9698 39.7674C46.9698 37.1567 44.8457 35.0326 42.235 35.0326ZM42.235 42.3149C40.8302 42.3149 39.6875 41.1721 39.6875 39.7674C39.6875 38.3627 40.8302 37.2201 42.235 37.2201C43.6395 37.2201 44.7823 38.3628 44.7823 39.7674C44.7823 41.172 43.6394 42.3149 42.235 42.3149Z" fill="#C2A38F"/>
<path d="M42.235 29.1174C40.9963 29.1174 39.8074 29.3336 38.7031 29.7292V23.2945C38.7031 22.6904 38.2133 22.2007 37.6094 22.2007C37.0054 22.2007 36.5156 22.6904 36.5156 23.2945V30.8161C35.508 31.4732 34.6197 32.2984 33.8906 33.2517V9.84375C33.8906 9.23967 33.4008 8.75 32.7969 8.75H9.17188C8.56791 8.75 8.07813 9.23967 8.07813 9.84375V46.1562C8.07813 46.7603 8.56791 47.25 9.17188 47.25H32.7969C33.4008 47.25 33.8906 46.7603 33.8906 46.1562V45.9873C33.9499 46.0649 36.5156 49.3537 36.5156 49.3537V50.5312C36.5156 52.3405 35.0437 53.8125 33.2344 53.8125H8.73438C6.92509 53.8125 5.45312 52.3405 5.45312 50.5312V5.46875C5.45312 3.65947 6.92509 2.1875 8.73438 2.1875H33.2344C35.0437 2.1875 36.5156 3.65947 36.5156 5.46875V13.4508C36.5156 14.0549 37.0054 14.5446 37.6094 14.5446C38.2133 14.5446 38.7031 14.0549 38.7031 13.4508V5.46875C38.7031 2.45328 36.2498 0 33.2344 0H8.73438C5.71891 0 3.26562 2.45328 3.26562 5.46875V50.5312C3.26562 53.5467 5.71891 56 8.73438 56H33.2344C35.768 56 37.9041 54.2678 38.5223 51.9258L41.3726 55.5791C41.58 55.8447 41.8981 56 42.235 56.0001H42.2351C42.5719 56.0001 42.89 55.8449 43.0973 55.5793C43.0973 55.5793 50.3866 46.2396 50.3998 46.22C51.9064 44.3582 52.7352 42.0177 52.7352 39.6175C52.735 33.8277 48.0246 29.1174 42.235 29.1174ZM22.2175 36.2277V45.0625H19.4775V23.355C19.4775 22.7509 18.9877 22.2612 18.3838 22.2612H10.2655V19.4665H31.703V22.2612H23.3111C22.7071 22.2612 22.2174 22.7509 22.2174 23.355V31.254C22.2174 31.8581 22.7071 32.3478 23.3111 32.3478H31.703V35.134H23.3111C22.7071 35.134 22.2175 35.6237 22.2175 36.2277ZM31.703 30.1603H24.4049V24.4487H31.703V30.1603ZM31.703 10.9375V17.279H10.2655V10.9375H31.703ZM10.2655 24.4487H17.29V45.0625H10.2655V24.4487ZM24.405 45.0625V37.3215H31.7031V45.0625H24.405ZM48.6467 44.9078C48.6196 44.9407 42.2352 53.1284 42.2352 53.1284C42.2352 53.1284 35.8001 44.8792 35.7881 44.8644C34.585 43.3883 33.9225 41.5249 33.9225 39.6173C33.9225 35.0337 37.6515 31.3048 42.235 31.3048C46.8184 31.3048 50.5475 35.0337 50.5475 39.6173C50.5475 41.5454 49.8724 43.4243 48.6467 44.9078Z" fill="#C2A38F"/>
<path d="M36.8362 17.5995C36.6328 17.803 36.5156 18.0851 36.5156 18.3728C36.5156 18.6605 36.6327 18.9426 36.8362 19.1461C37.0395 19.3495 37.3217 19.4666 37.6094 19.4666C37.8982 19.4666 38.1792 19.3495 38.3837 19.1461C38.5872 18.9426 38.7031 18.6605 38.7031 18.3728C38.7031 18.0851 38.5872 17.803 38.3837 17.5995C38.1792 17.3961 37.8982 17.2791 37.6094 17.2791C37.3218 17.2791 37.0406 17.3961 36.8362 17.5995Z" fill="#C2A38F"/>
</g>
<defs>
<clipPath id="clip0">
<rect width="56" height="56" fill="white"/>
</clipPath>
</defs>
</svg>
