<svg width="102" height="101" viewBox="0 0 102 101" fill="none" xmlns="http://www.w3.org/2000/svg">
<path d="M37.9926 37.4924C39.0216 37.4924 40.0276 37.1873 40.8832 36.6155C41.7389 36.0438 42.4057 35.2312 42.7996 34.2805C43.1934 33.3298 43.2964 32.2836 43.0956 31.2743C42.8949 30.265 42.3993 29.3379 41.6717 28.6103C40.944 27.8826 40.0169 27.3871 39.0076 27.1863C37.9984 26.9856 36.9522 27.0886 36.0015 27.4824C35.0507 27.8762 34.2381 28.5431 33.6664 29.3987C33.0947 30.2544 32.7896 31.2603 32.7896 32.2894C32.7896 33.6693 33.3377 34.9927 34.3135 35.9685C35.2892 36.9442 36.6127 37.4924 37.9926 37.4924ZM37.9926 29.6879C38.5071 29.6879 39.0101 29.8404 39.4379 30.1263C39.8657 30.4122 40.1992 30.8185 40.3961 31.2938C40.593 31.7692 40.6445 32.2923 40.5441 32.7969C40.4437 33.3016 40.196 33.7651 39.8321 34.1289C39.4683 34.4928 39.0048 34.7405 38.5001 34.8409C37.9955 34.9413 37.4724 34.8898 36.997 34.6929C36.5217 34.496 36.1154 34.1625 35.8295 33.7347C35.5436 33.3069 35.3911 32.8039 35.3911 32.2894C35.3911 31.5994 35.6652 30.9377 36.153 30.4498C36.6409 29.962 37.3026 29.6879 37.9926 29.6879Z" fill="#C2A38F"/>
<path d="M37.9926 50.5C39.0216 50.5 40.0276 50.1949 40.8832 49.6232C41.7389 49.0514 42.4057 48.2388 42.7996 47.2881C43.1934 46.3374 43.2964 45.2912 43.0956 44.2819C42.8949 43.2726 42.3993 42.3456 41.6717 41.6179C40.944 40.8902 40.0169 40.3947 39.0076 40.1939C37.9984 39.9932 36.9522 40.0962 36.0015 40.49C35.0507 40.8838 34.2381 41.5507 33.6664 42.4063C33.0947 43.262 32.7896 44.2679 32.7896 45.297C32.7896 46.6769 33.3377 48.0003 34.3135 48.9761C35.2892 49.9519 36.6127 50.5 37.9926 50.5ZM37.9926 42.6955C38.5071 42.6955 39.0101 42.8481 39.4379 43.1339C39.8657 43.4198 40.1992 43.8261 40.3961 44.3014C40.593 44.7768 40.6445 45.2999 40.5441 45.8045C40.4437 46.3092 40.196 46.7727 39.8321 47.1365C39.4683 47.5004 39.0048 47.7481 38.5001 47.8485C37.9955 47.9489 37.4724 47.8974 36.997 47.7005C36.5217 47.5036 36.1154 47.1701 35.8295 46.7423C35.5436 46.3145 35.3911 45.8115 35.3911 45.297C35.3911 44.607 35.6652 43.9453 36.153 43.4574C36.6409 42.9696 37.3026 42.6955 37.9926 42.6955Z" fill="#C2A38F"/>
<path d="M37.9926 76.5151C39.0216 76.5151 40.0276 76.21 40.8832 75.6383C41.7389 75.0666 42.4057 74.254 42.7996 73.3032C43.1934 72.3525 43.2964 71.3063 43.0956 70.2971C42.8949 69.2878 42.3993 68.3607 41.6717 67.633C40.944 66.9054 40.0169 66.4098 39.0076 66.2091C37.9984 66.0083 36.9522 66.1113 36.0015 66.5051C35.0507 66.8989 34.2381 67.5658 33.6664 68.4215C33.0947 69.2771 32.7896 70.2831 32.7896 71.3121C32.7896 72.692 33.3377 74.0155 34.3135 74.9912C35.2892 75.967 36.6127 76.5151 37.9926 76.5151ZM37.9926 68.7106C38.5071 68.7106 39.0101 68.8632 39.4379 69.149C39.8657 69.4349 40.1992 69.8412 40.3961 70.3166C40.593 70.7919 40.6445 71.315 40.5441 71.8196C40.4437 72.3243 40.196 72.7878 39.8321 73.1517C39.4683 73.5155 39.0048 73.7633 38.5001 73.8636C37.9955 73.964 37.4724 73.9125 36.997 73.7156C36.5217 73.5187 36.1154 73.1853 35.8295 72.7574C35.5436 72.3296 35.3911 71.8266 35.3911 71.3121C35.3911 70.6222 35.6652 69.9604 36.153 69.4726C36.6409 68.9847 37.3026 68.7106 37.9926 68.7106Z" fill="#C2A38F"/>
<path d="M74.4136 16.6803H61.4061V12.778C61.4061 12.433 61.269 12.1022 61.0251 11.8582C60.7811 11.6143 60.4503 11.4773 60.1053 11.4773H41.8947C41.5497 11.4773 41.2189 11.6143 40.9749 11.8582C40.731 12.1022 40.5939 12.433 40.5939 12.778V16.6803H27.5864C26.2064 16.6803 24.883 17.2285 23.9073 18.2042C22.9315 19.18 22.3833 20.5034 22.3833 21.8833V84.3197C22.3833 85.6996 22.9315 87.023 23.9073 87.9988C24.883 88.9745 26.2064 89.5227 27.5864 89.5227H74.4136C75.7936 89.5227 77.117 88.9745 78.0927 87.9988C79.0685 87.023 79.6167 85.6996 79.6167 84.3197V21.8833C79.6167 20.5034 79.0685 19.18 78.0927 18.2042C77.117 17.2285 75.7936 16.6803 74.4136 16.6803ZM43.1955 14.0788H58.8045V21.8833H43.1955V14.0788ZM71.8121 24.4848V81.7182H30.1879V24.4848H71.8121ZM77.0151 84.3197C77.0151 85.0097 76.7411 85.6714 76.2532 86.1592C75.7653 86.6471 75.1036 86.9212 74.4136 86.9212H27.5864C26.8964 86.9212 26.2347 86.6471 25.7468 86.1592C25.2589 85.6714 24.9848 85.0097 24.9848 84.3197V21.8833C24.9848 21.1934 25.2589 20.5317 25.7468 20.0438C26.2347 19.5559 26.8964 19.2818 27.5864 19.2818H40.5939V21.8833H28.8871C28.5421 21.8833 28.2113 22.0204 27.9673 22.2643C27.7234 22.5082 27.5864 22.8391 27.5864 23.1841V83.0189C27.5864 83.3639 27.7234 83.6948 27.9673 83.9387C28.2113 84.1826 28.5421 84.3197 28.8871 84.3197H73.1129C73.4579 84.3197 73.7887 84.1826 74.0326 83.9387C74.2766 83.6948 74.4136 83.3639 74.4136 83.0189V23.1841C74.4136 22.8391 74.2766 22.5082 74.0326 22.2643C73.7887 22.0204 73.4579 21.8833 73.1129 21.8833H61.4061V19.2818H74.4136C75.1036 19.2818 75.7653 19.5559 76.2532 20.0438C76.7411 20.5317 77.0151 21.1934 77.0151 21.8833V84.3197Z" fill="#C2A38F"/>
<path d="M48.3986 16.6803H53.6016V19.2818H48.3986V16.6803Z" fill="#C2A38F"/>
<path d="M45.7971 32.2894H48.3987V34.8909H45.7971V32.2894Z" fill="#C2A38F"/>
<path d="M51 32.2894H53.6015V34.8909H51V32.2894Z" fill="#C2A38F"/>
<path d="M56.2029 32.2894H58.8044V34.8909H56.2029V32.2894Z" fill="#C2A38F"/>
<path d="M61.4062 32.2894H64.0077V34.8909H61.4062V32.2894Z" fill="#C2A38F"/>
<path d="M45.7971 45.2969H48.3987V47.8985H45.7971V45.2969Z" fill="#C2A38F"/>
<path d="M51 45.2969H53.6015V47.8985H51V45.2969Z" fill="#C2A38F"/>
<path d="M56.2029 45.2969H58.8044V47.8985H56.2029V45.2969Z" fill="#C2A38F"/>
<path d="M61.4062 45.2969H64.0077V47.8985H61.4062V45.2969Z" fill="#C2A38F"/>
<path d="M45.7971 58.3046H48.3987V60.9061H45.7971V58.3046Z" fill="#C2A38F"/>
<path d="M51 58.3046H53.6015V60.9061H51V58.3046Z" fill="#C2A38F"/>
<path d="M56.2029 58.3046H58.8044V60.9061H56.2029V58.3046Z" fill="#C2A38F"/>
<path d="M61.4062 58.3046H64.0077V60.9061H61.4062V58.3046Z" fill="#C2A38F"/>
<path d="M45.7971 71.3122H48.3987V73.9137H45.7971V71.3122Z" fill="#C2A38F"/>
<path d="M51 71.3122H53.6015V73.9137H51V71.3122Z" fill="#C2A38F"/>
<path d="M56.2029 71.3122H58.8044V73.9137H56.2029V71.3122Z" fill="#C2A38F"/>
<path d="M61.4062 71.3122H64.0077V73.9137H61.4062V71.3122Z" fill="#C2A38F"/>
<path d="M36.5837 60.2557L35.0098 58.6818L33.1705 60.5211L35.772 63.1226C35.8925 63.2441 36.0357 63.3406 36.1935 63.4067C36.3513 63.4728 36.5206 63.5071 36.6917 63.5076H36.7632C36.9459 63.4977 37.1244 63.4493 37.2871 63.3657C37.4498 63.2821 37.5931 63.1652 37.7075 63.0224L42.9106 56.5186L40.8788 54.8927L36.5837 60.2557Z" fill="#C2A38F"/>
</svg>
