<svg width="40" height="40" viewBox="0 0 40 40" fill="none" xmlns="http://www.w3.org/2000/svg">
<path d="M34.1422 5.85789C30.3647 2.08039 25.3422 0 20 0C14.6578 0 9.63531 2.08039 5.85781 5.85789C2.08031 9.63539 0 14.6578 0 20C0 25.3422 2.08031 30.3647 5.85781 34.1421C9.63531 37.9195 14.6578 40 20 40C25.3422 40 30.3647 37.9196 34.1422 34.1421C37.9197 30.3646 40 25.3422 40 20C40 14.6578 37.9197 9.63531 34.1422 5.85789ZM20 37.6331C10.2771 37.6331 2.36687 29.7229 2.36687 20C2.36687 10.2771 10.2771 2.36687 20 2.36687C29.7229 2.36687 37.6331 10.2771 37.6331 20C37.6331 29.7229 29.7229 37.6331 20 37.6331Z" fill="#D8D1CA"/>
<path d="M20 3.92578C19.9563 3.92578 19.9129 3.92711 19.8693 3.92742C19.8583 3.92711 19.8475 3.92578 19.8364 3.92578C19.8179 3.92578 19.7998 3.92766 19.7815 3.92852C11.0426 4.0457 3.96538 11.1705 3.92647 19.9277C3.9264 19.9339 3.92554 19.9398 3.92554 19.9459C3.92554 19.9496 3.92608 19.9532 3.92608 19.9568C3.92608 19.9713 3.92554 19.9857 3.92554 20.0001C3.92554 28.8635 11.1364 36.0745 19.9999 36.0745C28.8634 36.0745 36.0744 28.8636 36.0744 20.0002C36.0744 11.1367 28.8635 3.92578 20 3.92578ZM21.1834 33.656V32.1558C21.1834 31.5022 20.6536 30.9723 20 30.9723C19.3464 30.9723 18.8166 31.5022 18.8166 32.1558V33.656C12.1823 33.0859 6.88343 27.7708 6.33921 21.1293H7.6264C8.27999 21.1293 8.80983 20.5995 8.80983 19.9459C8.80983 19.2923 8.27999 18.7624 7.6264 18.7624H6.34897C6.93671 12.2262 12.1315 6.99781 18.653 6.35883V7.57242C18.653 8.22602 19.1829 8.75586 19.8365 8.75586C20.4901 8.75586 21.0199 8.22602 21.0199 7.57242V6.33055C27.6394 6.81977 32.9665 12.0304 33.6365 18.599H32.21C31.5564 18.599 31.0266 19.1288 31.0266 19.7824C31.0266 20.436 31.5564 20.9659 32.21 20.9659H33.6731C33.2032 27.6834 27.872 33.0813 21.1834 33.656Z" fill="#D8D1CA"/>
<path d="M24.7903 15.2092C24.3283 14.7469 23.579 14.7469 23.1169 15.2092L19.9999 18.3262L13.9543 12.2807C13.4922 11.8185 12.7429 11.8185 12.2807 12.2807C11.8185 12.7429 11.8185 13.4921 12.2807 13.9543L19.163 20.8366C19.3849 21.0585 19.6859 21.1832 19.9998 21.1832C20.3136 21.1832 20.6147 21.0585 20.8366 20.8366L24.7903 16.8828C25.2525 16.4206 25.2525 15.6713 24.7903 15.2092Z" fill="#D8D1CA"/>
</svg>
