<svg width="80" height="80" viewBox="0 0 80 80" fill="none" xmlns="http://www.w3.org/2000/svg">
<g clip-path="url(#clip0)">
<path d="M66.4464 64.1207C64.9077 64.1207 63.6553 65.3732 63.6553 66.9118C63.6553 68.4505 64.9077 69.703 66.4464 69.703C67.9851 69.703 69.2375 68.4505 69.2375 66.9118C69.2375 65.3732 67.9851 64.1207 66.4464 64.1207ZM66.4464 67.8422C65.934 67.8422 65.516 67.4252 65.516 66.9118C65.516 66.3985 65.934 65.9815 66.4464 65.9815C66.9588 65.9815 67.3768 66.3985 67.3768 66.9118C67.3768 67.4252 66.9588 67.8422 66.4464 67.8422Z" fill="#C2A38F"/>
<path d="M17.136 13.8802C17.136 12.3416 15.8835 11.0891 14.3448 11.0891C12.8062 11.0891 11.5537 12.3416 11.5537 13.8802C11.5537 15.4189 12.8062 16.6714 14.3448 16.6714C15.8835 16.6714 17.136 15.4189 17.136 13.8802ZM13.4145 13.8802C13.4145 13.3678 13.8324 12.9499 14.3448 12.9499C14.8573 12.9499 15.2752 13.3678 15.2752 13.8802C15.2752 14.3927 14.8573 14.8106 14.3448 14.8106C13.8324 14.8106 13.4145 14.3927 13.4145 13.8802Z" fill="#C2A38F"/>
<path d="M61.5352 47.959L59.6976 44.2843C60.0874 43.4934 60.4213 42.6943 60.6957 41.8988L64.5857 40.6018V29.9561L60.6957 28.6591C60.4222 27.8636 60.0874 27.0645 59.6976 26.2736L61.537 22.5953L54.01 15.0682L50.3316 16.9076C49.5407 16.5178 48.7416 16.183 47.9461 15.9095L46.6492 12.0195H36.0034L34.7064 15.9095C33.911 16.183 33.1119 16.5178 32.321 16.9076L28.6426 15.0682L21.1155 22.5953L22.9549 26.2736C22.5652 27.0645 22.2303 27.8636 21.9569 28.6591L18.0668 29.9561V40.6009L21.9569 41.8975C22.2285 42.6875 22.5588 43.4793 22.9449 44.2638L21.7483 46.4435H16.2061V65.0511H22.7187V62.2599H29.7765L32.5676 65.0511H37.6048V65.9814C37.6048 68.0339 39.2738 69.703 41.3263 69.703C43.3787 69.703 45.0478 68.0339 45.0478 65.9814V65.0511H51.5614C53.1 65.0511 54.3525 63.7986 54.3525 62.2599C54.3525 61.5426 54.0726 60.8943 53.627 60.3992C54.0736 59.904 54.3525 59.2557 54.3525 58.5384C54.3525 57.8211 54.0726 57.1728 53.627 56.6777C53.9822 56.2833 54.2248 55.7909 54.3098 55.2421L61.5352 47.959ZM24.8225 43.8513C24.3105 42.8683 23.893 41.8688 23.5809 40.8826L23.4378 40.4306L19.9276 39.2599V31.2971L23.4378 30.1273L23.58 29.6744C23.8908 28.6891 24.3087 27.6896 24.8211 26.7066L25.0401 26.285L23.3792 22.9628L29.0092 17.3328L32.3314 18.9937L32.753 18.7752C33.737 18.2623 34.7355 17.8448 35.7208 17.5336L36.1738 17.3914L37.3454 13.8802H45.3081L46.4779 17.3905L46.9308 17.5327C47.9162 17.8434 48.9156 18.2614 49.8987 18.7738L50.3202 18.9928L53.6424 17.3319L59.2724 22.9619L57.6115 26.2841L57.8301 26.7057C58.3429 27.6896 58.7604 28.6882 59.0716 29.6735L59.2138 30.1264L62.725 31.298V39.2608L59.2147 40.4306L59.0716 40.8826C58.7595 41.8688 58.342 42.8683 57.8301 43.8513L57.6115 44.2729L59.2742 47.5974L53.7765 53.1374C53.7292 53.0752 53.6788 53.0138 53.627 52.9561C54.0736 52.461 54.3525 51.8127 54.3525 51.0954C54.3525 49.6439 53.2349 48.4623 51.818 48.3301C55.7649 45.167 58.0731 40.4201 58.0731 35.279C58.0731 26.0451 50.5601 18.5321 41.3263 18.5321C32.0925 18.5321 24.5795 26.0451 24.5795 35.279C24.5795 40.3579 26.8886 45.1356 30.8082 48.3043H22.85L25.0519 44.2924L24.8225 43.8513ZM52.4917 58.5384C52.4917 59.0518 52.0738 59.4688 51.5614 59.4688H44.1174C43.605 59.4688 43.187 59.0518 43.187 58.5384C43.187 58.0251 43.605 57.608 44.1174 57.608H51.5614C52.0738 57.608 52.4917 58.0251 52.4917 58.5384ZM39.0803 35.279H43.5723L45.0478 33.8034V29.6967C46.074 29.6967 46.9086 30.5312 46.9086 31.5574V35.8241L43.7322 39.0005H38.9204L35.744 35.8241V31.5574C35.744 30.5312 36.5785 29.6967 37.6048 29.6967V33.8034L39.0803 35.279ZM39.4655 40.8612H43.187V44.5827H39.4655V40.8612ZM45.0478 40.3161L48.7693 36.5946V31.5574C48.7693 29.505 47.1003 27.8359 45.0478 27.8359H43.187V33.033L42.8018 33.4182H39.8508L39.4655 33.033V27.8359H37.6048C35.5523 27.8359 33.8832 29.505 33.8832 31.5574V36.5946L37.6048 40.3161V44.5827H35.3588L35.3002 44.6413C32.1238 42.5916 30.1617 39.0777 30.1617 35.279C30.1617 29.1225 35.1698 24.1144 41.3263 24.1144C47.4828 24.1144 52.4908 29.1225 52.4908 35.279C52.4908 39.05 50.6069 42.5035 47.4537 44.5827H45.0478V40.3161ZM54.3516 35.279C54.3516 28.0962 48.509 22.2537 41.3263 22.2537C34.1436 22.2537 28.301 28.0962 28.301 35.279C28.301 39.5765 30.4388 43.5779 33.9455 45.996L32.6058 47.3357C28.7421 44.5373 26.4402 40.0585 26.4402 35.279C26.4402 27.0714 33.1187 20.3929 41.3263 20.3929C49.5339 20.3929 56.2123 27.0714 56.2123 35.279C56.2123 39.8768 54.134 44.1194 50.5855 46.9319C50.4792 46.2722 50.1426 45.6953 49.6588 45.276C52.6239 42.8142 54.3516 39.1894 54.3516 35.279ZM51.5614 50.165C52.0738 50.165 52.4917 50.582 52.4917 51.0954C52.4917 51.6087 52.0738 52.0258 51.5614 52.0258H44.1174C43.605 52.0258 43.187 51.6087 43.187 51.0954C43.187 50.582 43.605 50.165 44.1174 50.165H51.5614ZM44.1174 55.7473C43.605 55.7473 43.187 55.3302 43.187 54.8169C43.187 54.3036 43.605 53.8865 44.1174 53.8865H51.5614C52.0738 53.8865 52.4917 54.3036 52.4917 54.8169C52.4917 55.3302 52.0738 55.7473 51.5614 55.7473H44.1174ZM20.8579 63.1903H18.0668V48.3043H20.8579V63.1903ZM33.3381 63.1903L30.547 60.3992H22.7187V50.165H32.4077L36.1292 46.4435H47.8389C48.3514 46.4435 48.7693 46.8605 48.7693 47.3739C48.7693 47.8872 48.3514 48.3043 47.8389 48.3043H38.1499L34.1558 52.2983L35.4714 53.614L37.6048 51.4806V63.1903H33.3381ZM41.3263 67.8422C40.3 67.8422 39.4655 67.0077 39.4655 65.9814V50.165H41.4975C41.3931 50.4571 41.3263 50.7678 41.3263 51.0954C41.3263 51.8127 41.6061 52.461 42.0518 52.9561C41.6052 53.4513 41.3263 54.0996 41.3263 54.8169C41.3263 55.5342 41.6061 56.1825 42.0518 56.6777C41.6052 57.1728 41.3263 57.8211 41.3263 58.5384C41.3263 59.2557 41.6061 59.904 42.0518 60.3992C41.6052 60.8943 41.3263 61.5426 41.3263 62.2599C41.3263 63.4711 42.1067 64.4946 43.187 64.8798V65.9814C43.187 67.0077 42.3525 67.8422 41.3263 67.8422ZM51.5614 63.1903H44.1174C43.605 63.1903 43.187 62.7733 43.187 62.2599C43.187 61.7466 43.605 61.3296 44.1174 61.3296H51.5614C52.0738 61.3296 52.4917 61.7466 52.4917 62.2599C52.4917 62.7733 52.0738 63.1903 51.5614 63.1903Z" fill="#C2A38F"/>
<path d="M13.415 19.4625H15.2758V21.3233H13.415V19.4625Z" fill="#C2A38F"/>
<path d="M13.415 24.1144H15.2758V25.9752H13.415V24.1144Z" fill="#C2A38F"/>
<path d="M13.415 28.7663H15.2758V30.6271H13.415V28.7663Z" fill="#C2A38F"/>
<path d="M65.5156 50.165H67.3764V52.0258H65.5156V50.165Z" fill="#C2A38F"/>
<path d="M65.5156 54.8169H67.3764V56.6777H65.5156V54.8169Z" fill="#C2A38F"/>
<path d="M65.5156 59.4688H67.3764V61.3296H65.5156V59.4688Z" fill="#C2A38F"/>
</g>
<defs>
<clipPath id="clip0">
<rect width="58.6139" height="58.6139" fill="white" transform="translate(11.0889 11.0891)"/>
</clipPath>
</defs>
</svg>
