<svg width="20" height="24" viewBox="0 0 20 24" fill="none" xmlns="http://www.w3.org/2000/svg">
<path d="M17.8311 2.75977C15.0713 -1.19209e-07 10.5772 -1.19209e-07 7.82034 2.75977L0.173855 10.4004C0.124051 10.4502 0.0976833 10.5176 0.0976833 10.5879C0.0976833 10.6582 0.124051 10.7256 0.173855 10.7754L1.25491 11.8564C1.30432 11.9056 1.37122 11.9333 1.44095 11.9333C1.51068 11.9333 1.57757 11.9056 1.62698 11.8564L9.27346 4.21582C10.2227 3.2666 11.4854 2.74512 12.8272 2.74512C14.169 2.74512 15.4317 3.2666 16.378 4.21582C17.3272 5.16504 17.8487 6.42773 17.8487 7.7666C17.8487 9.1084 17.3272 10.3682 16.378 11.3174L8.58499 19.1074L7.32229 20.3701C6.14163 21.5508 4.22268 21.5508 3.04202 20.3701C2.47073 19.7988 2.15725 19.04 2.15725 18.2314C2.15725 17.4229 2.47073 16.6641 3.04202 16.0928L10.7735 8.36426C10.9698 8.1709 11.2276 8.0625 11.503 8.0625H11.5059C11.7813 8.0625 12.0362 8.1709 12.2295 8.36426C12.4258 8.56055 12.5313 8.81836 12.5313 9.09375C12.5313 9.36621 12.4229 9.62402 12.2295 9.81738L5.91018 16.1309C5.86038 16.1807 5.83401 16.248 5.83401 16.3184C5.83401 16.3887 5.86038 16.4561 5.91018 16.5059L6.99124 17.5869C7.04065 17.6361 7.10754 17.6637 7.17727 17.6637C7.247 17.6637 7.31389 17.6361 7.36331 17.5869L13.6797 11.2705C14.2627 10.6875 14.5821 9.91406 14.5821 9.09082C14.5821 8.26758 14.2598 7.49121 13.6797 6.91113C12.4756 5.70703 10.5186 5.70996 9.31448 6.91113L8.56448 7.66406L1.58596 14.6396C1.11232 15.1105 0.736878 15.6707 0.4814 16.2878C0.225922 16.9049 0.0954951 17.5665 0.0976833 18.2344C0.0976833 19.5908 0.627957 20.8652 1.58596 21.8232C2.57913 22.8135 3.87991 23.3086 5.18069 23.3086C6.48147 23.3086 7.78225 22.8135 8.77249 21.8232L17.8311 12.7705C19.1641 11.4346 19.9024 9.65625 19.9024 7.7666C19.9053 5.87402 19.167 4.0957 17.8311 2.75977Z" fill="#D8D1CA"/>
</svg>
