<svg width="41" height="40" viewBox="0 0 41 40" fill="none" xmlns="http://www.w3.org/2000/svg">
<g clip-path="url(#clip0)">
<path d="M39.3279 32.8907H37.9688C37.4391 30.1783 35.0447 28.1251 32.1797 28.1251C30.2197 28.1251 28.6251 29.7197 28.6251 31.6798C28.6251 33.6399 30.2197 35.2345 32.1797 35.2345H35.5493C35.0753 36.6409 33.7439 37.6563 32.1797 37.6563H27.5113C25.7656 37.6563 24.1349 36.8238 23.1002 35.4656L24.048 35.0236C25.8048 34.2044 26.5677 32.1085 25.7484 30.3517L23.3058 25.1134C22.5712 23.5381 20.7629 22.7305 19.0994 23.2349L16.5577 24.0057C13.9723 20.3746 12.6151 17.4642 11.4955 13.1495L13.7197 11.6978C15.1753 10.7477 15.7191 8.84337 14.9845 7.26798L12.542 2.0297C11.7227 0.272744 9.62696 -0.490068 7.87008 0.329228L5.23133 1.5597C1.615 3.2461 -0.254683 7.28814 0.785786 11.1709C2.9929 19.4073 6.29868 26.4967 11.1892 33.4817C13.3941 36.6308 17.421 37.8327 20.9316 36.4567C22.3757 38.6399 24.8495 40.0001 27.5113 40.0001H32.1797C35.0447 40.0001 37.4391 37.9469 37.9688 35.2345H39.3279C39.9751 35.2345 40.4998 34.7098 40.4998 34.0626C40.4998 33.4154 39.9751 32.8907 39.3279 32.8907ZM20.4187 34.1299C17.8351 35.3347 14.7609 34.4967 13.1091 32.1374C8.38024 25.3834 5.18376 18.5284 3.04961 10.5643C2.30415 7.78228 3.63829 4.8886 6.2218 3.68384L8.86063 2.45329C9.44626 2.18024 10.1448 2.43446 10.4179 3.02009L12.8605 8.25829C13.1053 8.78337 12.9241 9.41821 12.4389 9.73485L9.51508 11.6431C9.09899 11.9147 8.89938 12.4192 9.01696 12.9019C10.3108 18.2137 11.9168 21.6577 15.1541 26.0633C15.4483 26.4637 15.9631 26.635 16.4385 26.4909L19.7797 25.4776C20.3341 25.3095 20.937 25.5787 21.1818 26.1038L23.6244 31.342C23.8975 31.9276 23.6432 32.6262 23.0576 32.8993L20.4187 34.1299ZM32.1797 32.8907C31.512 32.8907 30.9688 32.3475 30.9688 31.6798C30.9688 31.012 31.512 30.4688 32.1797 30.4688C33.7438 30.4688 35.0752 31.4843 35.5493 32.8907H32.1797Z" fill="#D8D1CA"/>
<path d="M34.3873 20.2311C33.9296 20.6887 33.9296 21.4307 34.3873 21.8883C34.6161 22.1172 34.916 22.2316 35.2159 22.2316C35.5157 22.2316 35.8157 22.1172 36.0445 21.8883C41.9843 15.9485 41.9843 6.28357 36.0445 0.34373C35.5869 -0.113926 34.8449 -0.113926 34.3872 0.34373C33.9295 0.801309 33.9295 1.54334 34.3872 2.001C39.4133 7.02701 39.4133 15.205 34.3873 20.2311Z" fill="#D8D1CA"/>
<path d="M33.4708 11.1159C33.4708 13.3098 32.6191 15.3698 31.0726 16.9163C30.6149 17.3739 30.6149 18.1159 31.0726 18.5736C31.3014 18.8024 31.6013 18.9169 31.9012 18.9169C32.201 18.9169 32.501 18.8024 32.7298 18.5736C36.842 14.4614 36.842 7.77031 32.7298 3.65812C32.2722 3.20055 31.5301 3.20055 31.0725 3.65812C30.6148 4.1157 30.6148 4.85773 31.0725 5.31539C32.6191 6.86188 33.4708 8.92188 33.4708 11.1159Z" fill="#D8D1CA"/>
<path d="M27.7581 15.259C27.9869 15.4878 28.2869 15.6023 28.5867 15.6023C28.8866 15.6023 29.1866 15.4878 29.4153 15.259C31.6999 12.9745 31.6999 9.25711 29.4153 6.97258C28.9577 6.515 28.2157 6.515 27.758 6.97258C27.3004 7.43016 27.3004 8.17219 27.758 8.62985C29.1287 10.0006 29.1287 12.231 27.758 13.6018C27.3005 14.0594 27.3005 14.8014 27.7581 15.259Z" fill="#D8D1CA"/>
<path d="M25.2722 12.2876C25.9194 12.2876 26.4441 11.7629 26.4441 11.1157C26.4441 10.4685 25.9194 9.94385 25.2722 9.94385C24.625 9.94385 24.1003 10.4685 24.1003 11.1157C24.1003 11.7629 24.625 12.2876 25.2722 12.2876Z" fill="#D8D1CA"/>
</g>
<defs>
<clipPath id="clip0">
<rect width="40" height="40" fill="white" transform="translate(0.5)"/>
</clipPath>
</defs>
</svg>
