<svg width="101" height="101" viewBox="0 0 101 101" fill="none" xmlns="http://www.w3.org/2000/svg">
<path d="M30.9119 89.9201C29.0215 89.9192 27.2087 89.1685 25.8711 87.8328C24.5335 86.4971 23.7803 84.6853 23.7768 82.7949V26.2892C23.7768 25.9953 23.8935 25.7134 24.1013 25.5056C24.3091 25.2978 24.591 25.1811 24.8849 25.1811C25.1788 25.1811 25.4606 25.2978 25.6684 25.5056C25.8763 25.7134 25.993 25.9953 25.993 26.2892V82.7949C26.0124 84.0869 26.5392 85.3193 27.4597 86.2261C28.3801 87.1328 29.6204 87.6411 30.9124 87.6411C32.2045 87.6411 33.4447 87.1328 34.3652 86.2261C35.2857 85.3193 35.8125 84.0869 35.8319 82.7949V77.5093C35.8319 77.2154 35.9486 76.9335 36.1564 76.7257C36.3643 76.5179 36.6461 76.4012 36.94 76.4012H80.8432V19.4909C80.8418 18.1865 80.3229 16.936 79.4006 16.0136C78.4782 15.0912 77.2277 14.5724 75.9232 14.5709H18.2839C17.99 14.5709 17.7081 14.4542 17.5003 14.2464C17.2925 14.0386 17.1758 13.7567 17.1758 13.4628C17.1758 13.1689 17.2925 12.8871 17.5003 12.6793C17.7081 12.4715 17.99 12.3547 18.2839 12.3547H75.9232C77.8153 12.3568 79.6292 13.1093 80.967 14.4471C82.3049 15.785 83.0574 17.5989 83.0595 19.4909V77.5093C83.0595 77.8032 82.9427 78.085 82.7349 78.2928C82.5271 78.5006 82.2452 78.6174 81.9514 78.6174H38.0481V82.7949C38.0443 84.6854 37.2909 86.4972 35.9531 87.8329C34.6153 89.1686 32.8023 89.9192 30.9119 89.9201Z" fill="#C2A38F"/>
<path d="M81.5387 89.9223H30.9147C30.6209 89.9223 30.339 89.8055 30.1312 89.5977C29.9234 89.3899 29.8066 89.1081 29.8066 88.8142C29.8066 88.5203 29.9234 88.2384 30.1312 88.0306C30.339 87.8228 30.6209 87.7061 30.9147 87.7061C32.2177 87.7061 33.4674 87.1892 34.3898 86.269C35.3122 85.3487 35.8318 84.1001 35.8347 82.7972V77.5115C35.8347 77.2176 35.9515 76.9357 36.1593 76.7279C36.3671 76.5201 36.649 76.4034 36.9429 76.4034H87.5546C87.8485 76.4034 88.1303 76.5201 88.3381 76.7279C88.5459 76.9357 88.6627 77.2176 88.6627 77.5115V82.7972C88.6609 84.6861 87.9098 86.4972 86.5742 87.833C85.2386 89.1689 83.4276 89.9202 81.5387 89.9223ZM36.083 87.7061H81.5387C82.84 87.7046 84.0877 87.1869 85.0078 86.2666C85.9279 85.3463 86.4453 84.0985 86.4465 82.7972V78.6196H38.051V82.7972C38.0525 84.626 37.3474 86.3847 36.083 87.7061Z" fill="#C2A38F"/>
<path d="M46.5892 70.0694C46.387 70.0696 46.1887 70.0144 46.0156 69.9099C45.8426 69.8054 45.7014 69.6556 45.6074 69.4766L43.9874 66.3905L40.6697 67.451C40.4673 67.516 40.2504 67.5214 40.045 67.4666C39.8396 67.4118 39.6543 67.299 39.5112 67.1418C39.3682 66.9846 39.2733 66.7895 39.238 66.5799C39.2027 66.3702 39.2285 66.1549 39.3123 65.9595L44.0406 54.8861C44.1559 54.6158 44.3739 54.4023 44.6467 54.2927C44.9194 54.183 45.2246 54.1863 45.4949 54.3016C45.7653 54.417 45.9788 54.635 46.0884 54.9077C46.198 55.1805 46.1948 55.4856 46.0795 55.756L42.3019 64.602L44.1979 63.997C44.4462 63.9173 44.7147 63.9277 44.9561 64.0264C45.1975 64.1251 45.3964 64.3058 45.5177 64.5367L46.4839 66.3772L50.5374 56.8475C50.5916 56.7098 50.6729 56.5843 50.7764 56.4785C50.8799 56.3727 51.0036 56.2887 51.1401 56.2315C51.2766 56.1742 51.4232 56.1449 51.5712 56.1453C51.7192 56.1457 51.8657 56.1757 52.0019 56.2336C52.1381 56.2915 52.2614 56.3761 52.3644 56.4824C52.4674 56.5887 52.548 56.7146 52.6015 56.8526C52.6551 56.9906 52.6804 57.1379 52.6761 57.2859C52.6718 57.4338 52.6378 57.5794 52.5763 57.714L47.6076 69.3946C47.5256 69.5874 47.3908 69.753 47.2186 69.8722C47.0464 69.9915 46.8439 70.0595 46.6346 70.0683L46.5892 70.0694Z" fill="#C2A38F"/>
<path d="M59.0807 70.0694H59.0352C58.8256 70.061 58.6226 69.9932 58.45 69.8739C58.2774 69.7546 58.1422 69.5888 58.0601 69.3957L53.1057 57.7107C52.9908 57.44 52.9881 57.1348 53.0983 56.8622C53.2084 56.5895 53.4224 56.3718 53.693 56.2569C53.9637 56.142 54.2689 56.1393 54.5416 56.2494C54.8142 56.3596 55.032 56.5735 55.1469 56.8442L59.1904 66.3739L60.1555 64.5355C60.2768 64.3049 60.4755 64.1244 60.7166 64.0257C60.9578 63.927 61.226 63.9165 61.4742 63.9959L63.3679 64.6009L59.5948 55.7793C59.5334 55.6449 59.4994 55.4995 59.4949 55.3518C59.4905 55.2041 59.5156 55.0569 59.5689 54.9191C59.6221 54.7812 59.7024 54.6554 59.805 54.549C59.9076 54.4426 60.0305 54.3579 60.1664 54.2997C60.3022 54.2415 60.4484 54.2111 60.5962 54.2103C60.7439 54.2094 60.8904 54.2381 61.0269 54.2947C61.1635 54.3513 61.2873 54.4347 61.3911 54.5399C61.495 54.6451 61.5767 54.7699 61.6315 54.9072L66.3554 65.9595C66.4389 66.1547 66.4645 66.3697 66.4293 66.5791C66.3941 66.7884 66.2994 66.9832 66.1567 67.1403C66.0139 67.2975 65.829 67.4103 65.624 67.4653C65.419 67.5204 65.2025 67.5154 65.0002 67.451L61.6825 66.3905L60.0625 69.4766C59.9685 69.6556 59.8273 69.8054 59.6542 69.9099C59.4812 70.0144 59.2828 70.0696 59.0807 70.0694Z" fill="#C2A38F"/>
<path d="M52.8392 58.9629C52.2369 58.9629 51.6519 58.7616 51.1771 58.3911L49.4096 57.0159C49.3043 56.9387 49.1738 56.9039 49.044 56.9184L46.8277 57.2265C46.2308 57.3117 45.6225 57.1942 45.1002 56.8929C44.5779 56.5915 44.1717 56.1237 43.9467 55.5643L43.1078 53.4932C43.0835 53.4313 43.0471 53.3749 43.0007 53.3274C42.9542 53.2798 42.8987 53.242 42.8374 53.2162L40.7664 52.3774C40.2074 52.1517 39.7401 51.7454 39.4388 51.2233C39.1376 50.7011 39.0198 50.0932 39.1042 49.4963L39.4112 47.2801C39.4205 47.2154 39.4166 47.1496 39.3996 47.0865C39.3826 47.0235 39.353 46.9645 39.3125 46.9133L37.9374 45.1403C37.5666 44.6656 37.3652 44.0805 37.3652 43.4782C37.3652 42.8758 37.5666 42.2907 37.9374 41.816L39.3103 40.043C39.3508 39.9915 39.3804 39.9324 39.3975 39.8692C39.4147 39.806 39.4189 39.74 39.4101 39.6751L39.1031 37.4589C39.0187 36.862 39.1365 36.2541 39.4377 35.7319C39.739 35.2098 40.2063 34.8035 40.7653 34.5778L42.8374 33.7379C42.8982 33.7136 42.9534 33.6772 42.9997 33.6309C43.046 33.5846 43.0824 33.5294 43.1067 33.4686L43.9467 31.3964C44.172 30.8372 44.5782 30.3697 45.1005 30.0684C45.6227 29.7671 46.2308 29.6495 46.8277 29.7343L49.044 30.0423C49.1088 30.0514 49.1749 30.0472 49.2381 30.0301C49.3013 30.013 49.3604 29.9832 49.4118 29.9426L51.1782 28.5686C51.6532 28.1985 52.2382 27.9976 52.8403 27.9976C53.4425 27.9976 54.0274 28.1985 54.5025 28.5686L56.2699 29.9437C56.3214 29.9841 56.3806 30.0137 56.4438 30.0306C56.507 30.0476 56.573 30.0516 56.6378 30.0423L58.854 29.7343C59.4509 29.6499 60.0589 29.7677 60.581 30.0689C61.1031 30.3701 61.5094 30.8375 61.7351 31.3964L62.5739 33.4686C62.5988 33.5295 62.6357 33.5849 62.6823 33.6313C62.7289 33.6778 62.7844 33.7144 62.8454 33.739L64.9165 34.5778C65.4751 34.804 65.9421 35.2104 66.2433 35.7324C66.5444 36.2544 66.6625 36.8621 66.5787 37.4589L66.2706 39.6751C66.2536 39.8056 66.289 39.9376 66.3692 40.0419L67.7433 41.8149C68.1146 42.2894 68.3163 42.8745 68.3163 43.477C68.3163 44.0796 68.1146 44.6647 67.7433 45.1392L66.3681 46.9066C66.2885 47.0113 66.2535 47.1431 66.2706 47.2734L66.5787 49.4896C66.6625 50.0865 66.5444 50.6942 66.2433 51.2162C65.9421 51.7382 65.4751 52.1446 64.9165 52.3707L62.8399 53.2162C62.779 53.241 62.7236 53.2777 62.677 53.3242C62.6304 53.3706 62.5935 53.4258 62.5684 53.4866L61.7307 55.5576C61.5045 56.1163 61.0981 56.5833 60.5761 56.8844C60.0541 57.1856 59.4464 57.3036 58.8496 57.2198L56.6334 56.9118C56.5026 56.8949 56.3703 56.9303 56.2655 57.0104L54.4992 58.3844C54.0259 58.7571 53.4416 58.9608 52.8392 58.9629ZM49.106 54.6978C49.7076 54.6988 50.2919 54.8987 50.7682 55.2662L52.5411 56.6425C52.6271 56.709 52.7327 56.7451 52.8414 56.7451C52.9501 56.7451 53.0557 56.709 53.1417 56.6425L54.9081 55.2673C55.194 55.046 55.5212 54.8839 55.8705 54.7905C56.2199 54.6971 56.5843 54.6742 56.9425 54.7232L59.1588 55.0302C59.2669 55.048 59.3779 55.0278 59.4728 54.9731C59.5678 54.9184 59.6408 54.8324 59.6796 54.7299L60.5184 52.6577C60.6553 52.3219 60.8579 52.0168 61.1145 51.7605C61.371 51.5042 61.6762 51.3017 62.0121 51.1651L64.0843 50.3263C64.1852 50.2853 64.2696 50.2119 64.324 50.1175C64.3784 50.0231 64.3997 49.9133 64.3846 49.8055L64.0777 47.5892C64.0285 47.2317 64.0512 46.8679 64.1442 46.5191C64.2372 46.1704 64.3988 45.8437 64.6195 45.5581L65.9958 43.7851C66.0626 43.6994 66.0988 43.594 66.0988 43.4854C66.0988 43.3768 66.0626 43.2713 65.9958 43.1856L64.6217 41.4126C64.401 41.1281 64.239 40.8024 64.1452 40.4547C64.0514 40.1069 64.0277 39.744 64.0754 39.387L64.3824 37.1708C64.3975 37.0629 64.3762 36.9531 64.3218 36.8588C64.2674 36.7644 64.183 36.6909 64.0821 36.65L62.0099 35.81C61.6742 35.6736 61.3692 35.4713 61.1128 35.2152C60.8565 34.959 60.654 34.6541 60.5173 34.3185L59.6774 32.2464C59.6373 32.1447 59.564 32.0597 59.4694 32.0049C59.3749 31.9502 59.2646 31.9291 59.1565 31.945L56.9403 32.253C56.5824 32.3021 56.2183 32.2793 55.8693 32.1858C55.5204 32.0924 55.1936 31.9303 54.9081 31.7089L53.1351 30.3338C53.0493 30.2667 52.9436 30.2303 52.8348 30.2303C52.7259 30.2303 52.6202 30.2667 52.5345 30.3338L50.7615 31.7078C50.4755 31.9282 50.1486 32.0899 49.7998 32.1834C49.4511 32.277 49.0872 32.3006 48.7292 32.253L46.513 31.945C46.4051 31.9303 46.2953 31.9519 46.201 32.0065C46.1067 32.0611 46.0333 32.1455 45.9922 32.2464L45.1523 34.3185C45.0156 34.654 44.8133 34.9588 44.5572 35.2149C44.301 35.4711 43.9962 35.6734 43.6608 35.81L41.5886 36.6489C41.4877 36.6899 41.4033 36.7634 41.3487 36.8577C41.2942 36.952 41.2725 37.0617 41.2872 37.1697L41.5953 39.3859C41.6442 39.7441 41.6212 40.1086 41.5273 40.4577C41.4335 40.8069 41.2709 41.1338 41.049 41.4193L39.686 43.1878C39.6189 43.2736 39.5825 43.3793 39.5825 43.4881C39.5825 43.597 39.6189 43.7027 39.686 43.7884L41.0611 45.5614C41.2823 45.847 41.4444 46.1738 41.5378 46.5228C41.6312 46.8717 41.6541 47.2358 41.6052 47.5937L41.2972 49.8099C41.2821 49.9179 41.3036 50.0278 41.3582 50.1222C41.4128 50.2166 41.4974 50.29 41.5986 50.3307L43.6707 51.1706C44.0061 51.3074 44.3108 51.5098 44.5669 51.766C44.8231 52.0221 45.0255 52.3268 45.1622 52.6622L46.0022 54.7354C46.0434 54.8359 46.1168 54.9199 46.2108 54.9743C46.3048 55.0286 46.4143 55.0502 46.5219 55.0357L48.7381 54.7288C48.8599 54.7102 48.9828 54.6998 49.106 54.6978Z" fill="#C2A38F"/>
<path d="M52.8392 58.9629C52.2369 58.9629 51.6519 58.7616 51.1771 58.3911L49.4096 57.0159C49.3043 56.9387 49.1738 56.9039 49.044 56.9184L46.8277 57.2265C46.2308 57.3117 45.6225 57.1942 45.1002 56.8929C44.5779 56.5915 44.1717 56.1237 43.9467 55.5643L43.1078 53.4932C43.0835 53.4313 43.0471 53.3749 43.0007 53.3274C42.9542 53.2798 42.8987 53.242 42.8374 53.2162L40.7664 52.3774C40.2074 52.1517 39.7401 51.7454 39.4388 51.2233C39.1376 50.7011 39.0198 50.0932 39.1042 49.4963L39.4112 47.2801C39.4205 47.2154 39.4166 47.1496 39.3996 47.0865C39.3826 47.0235 39.353 46.9645 39.3125 46.9133L37.9374 45.1403C37.5666 44.6656 37.3652 44.0805 37.3652 43.4782C37.3652 42.8758 37.5666 42.2907 37.9374 41.816L39.3103 40.043C39.3508 39.9915 39.3804 39.9324 39.3975 39.8692C39.4147 39.806 39.4189 39.74 39.4101 39.6751L39.1031 37.4589C39.0187 36.862 39.1365 36.2541 39.4377 35.7319C39.739 35.2098 40.2063 34.8035 40.7653 34.5778L42.8374 33.7379C42.8982 33.7136 42.9534 33.6772 42.9997 33.6309C43.046 33.5846 43.0824 33.5294 43.1067 33.4686L43.9467 31.3964C44.172 30.8372 44.5782 30.3697 45.1005 30.0684C45.6227 29.7671 46.2308 29.6495 46.8277 29.7343L49.044 30.0423C49.1088 30.0514 49.1749 30.0472 49.2381 30.0301C49.3013 30.013 49.3604 29.9832 49.4118 29.9426L51.1782 28.5686C51.6532 28.1985 52.2382 27.9976 52.8403 27.9976C53.4425 27.9976 54.0274 28.1985 54.5025 28.5686L56.2699 29.9437C56.3214 29.9841 56.3806 30.0137 56.4438 30.0306C56.507 30.0476 56.573 30.0516 56.6378 30.0423L58.854 29.7343C59.4509 29.6499 60.0589 29.7677 60.581 30.0689C61.1031 30.3701 61.5094 30.8375 61.7351 31.3964L62.5739 33.4686C62.5988 33.5295 62.6357 33.5849 62.6823 33.6313C62.7289 33.6778 62.7844 33.7144 62.8454 33.739L64.9165 34.5778C65.4751 34.804 65.9421 35.2104 66.2433 35.7324C66.5444 36.2544 66.6625 36.8621 66.5787 37.4589L66.2706 39.6751C66.2536 39.8056 66.289 39.9376 66.3692 40.0419L67.7433 41.8149C68.1146 42.2894 68.3163 42.8745 68.3163 43.477C68.3163 44.0796 68.1146 44.6647 67.7433 45.1392L66.3681 46.9066C66.2885 47.0113 66.2535 47.1431 66.2706 47.2734L66.5787 49.4896C66.6625 50.0865 66.5444 50.6942 66.2433 51.2162C65.9421 51.7382 65.4751 52.1446 64.9165 52.3707L62.8399 53.2162C62.779 53.241 62.7236 53.2777 62.677 53.3242C62.6304 53.3706 62.5935 53.4258 62.5684 53.4866L61.7307 55.5576C61.5045 56.1163 61.0981 56.5833 60.5761 56.8844C60.0541 57.1856 59.4464 57.3036 58.8496 57.2198L56.6334 56.9118C56.5026 56.8949 56.3703 56.9303 56.2655 57.0104L54.4992 58.3844C54.0259 58.7571 53.4416 58.9608 52.8392 58.9629ZM49.106 54.6978C49.7076 54.6988 50.2919 54.8987 50.7682 55.2662L52.5411 56.6425C52.6271 56.709 52.7327 56.7451 52.8414 56.7451C52.9501 56.7451 53.0557 56.709 53.1417 56.6425L54.9081 55.2673C55.194 55.046 55.5212 54.8839 55.8705 54.7905C56.2199 54.6971 56.5843 54.6742 56.9425 54.7232L59.1588 55.0302C59.2669 55.048 59.3779 55.0278 59.4728 54.9731C59.5678 54.9184 59.6408 54.8324 59.6796 54.7299L60.5184 52.6577C60.6553 52.3219 60.8579 52.0168 61.1145 51.7605C61.371 51.5042 61.6762 51.3017 62.0121 51.1651L64.0843 50.3263C64.1852 50.2853 64.2696 50.2119 64.324 50.1175C64.3784 50.0231 64.3997 49.9133 64.3846 49.8055L64.0777 47.5892C64.0285 47.2317 64.0512 46.8679 64.1442 46.5191C64.2372 46.1704 64.3988 45.8437 64.6195 45.5581L65.9958 43.7851C66.0626 43.6994 66.0988 43.594 66.0988 43.4854C66.0988 43.3768 66.0626 43.2713 65.9958 43.1856L64.6217 41.4126C64.401 41.1281 64.239 40.8024 64.1452 40.4547C64.0514 40.1069 64.0277 39.744 64.0754 39.387L64.3824 37.1708C64.3975 37.0629 64.3762 36.9531 64.3218 36.8588C64.2674 36.7644 64.183 36.6909 64.0821 36.65L62.0099 35.81C61.6742 35.6736 61.3692 35.4713 61.1128 35.2152C60.8565 34.959 60.654 34.6541 60.5173 34.3185L59.6774 32.2464C59.6373 32.1447 59.564 32.0597 59.4694 32.0049C59.3749 31.9502 59.2646 31.9291 59.1565 31.945L56.9403 32.253C56.5824 32.3021 56.2183 32.2793 55.8693 32.1858C55.5204 32.0924 55.1936 31.9303 54.9081 31.7089L53.1351 30.3338C53.0493 30.2667 52.9436 30.2303 52.8348 30.2303C52.7259 30.2303 52.6202 30.2667 52.5345 30.3338L50.7615 31.7078C50.4755 31.9282 50.1486 32.0899 49.7998 32.1834C49.4511 32.277 49.0872 32.3006 48.7292 32.253L46.513 31.945C46.4051 31.9303 46.2953 31.9519 46.201 32.0065C46.1067 32.0611 46.0333 32.1455 45.9922 32.2464L45.1523 34.3185C45.0156 34.654 44.8133 34.9588 44.5572 35.2149C44.301 35.4711 43.9962 35.6734 43.6608 35.81L41.5886 36.6489C41.4877 36.6899 41.4033 36.7634 41.3487 36.8577C41.2942 36.952 41.2725 37.0617 41.2872 37.1697L41.5953 39.3859C41.6442 39.7441 41.6212 40.1086 41.5273 40.4577C41.4335 40.8069 41.2709 41.1338 41.049 41.4193L39.686 43.1878C39.6189 43.2736 39.5825 43.3793 39.5825 43.4881C39.5825 43.597 39.6189 43.7027 39.686 43.7884L41.0611 45.5614C41.2823 45.847 41.4444 46.1738 41.5378 46.5228C41.6312 46.8717 41.6541 47.2358 41.6052 47.5937L41.2972 49.8099C41.2821 49.9179 41.3036 50.0278 41.3582 50.1222C41.4128 50.2166 41.4974 50.29 41.5986 50.3307L43.6707 51.1706C44.0061 51.3074 44.3108 51.5098 44.5669 51.766C44.8231 52.0221 45.0255 52.3268 45.1622 52.6622L46.0022 54.7354C46.0434 54.8359 46.1168 54.9199 46.2108 54.9743C46.3048 55.0286 46.4143 55.0502 46.5219 55.0357L48.7381 54.7288C48.8599 54.7102 48.9828 54.6998 49.106 54.6978Z" fill="#C2A38F"/>
<path d="M48.9085 50.6454C48.7472 50.6453 48.5878 50.61 48.4416 50.5419C48.2953 50.4739 48.1657 50.3747 48.0618 50.2513C47.9578 50.128 47.8821 49.9834 47.8398 49.8277C47.7975 49.672 47.7897 49.509 47.817 49.35L48.4685 45.547L45.706 42.8532C45.5598 42.7086 45.4567 42.5263 45.4082 42.3265C45.3597 42.1267 45.3678 41.9173 45.4315 41.7218C45.4952 41.5263 45.612 41.3524 45.7689 41.2195C45.9258 41.0867 46.1166 41.0001 46.3199 40.9694L50.1385 40.4154L51.8461 36.9558C51.948 36.7831 52.0933 36.6399 52.2675 36.5404C52.4417 36.4409 52.6389 36.3886 52.8395 36.3886C53.0401 36.3886 53.2372 36.4409 53.4114 36.5404C53.5857 36.6399 53.7309 36.7831 53.8329 36.9558L55.5438 40.4087L59.3612 40.9628C59.566 40.9923 59.7584 41.0786 59.9167 41.2118C60.0749 41.3451 60.1927 41.52 60.2567 41.7167C60.3207 41.9134 60.3284 42.1242 60.2788 42.325C60.2292 42.5259 60.1244 42.7088 59.9762 42.8532L57.206 45.547L57.8575 49.35C57.8923 49.5537 57.8695 49.763 57.7916 49.9543C57.7137 50.1456 57.5839 50.3114 57.4168 50.4329C57.2497 50.5543 57.052 50.6267 56.8459 50.6417C56.6399 50.6567 56.4338 50.6139 56.2508 50.518L52.8345 48.7228L49.4204 50.518C49.2625 50.601 49.0869 50.6448 48.9085 50.6454ZM52.8389 46.3626C53.0185 46.3627 53.1953 46.4064 53.3542 46.49L55.2989 47.5128L54.9277 45.3487C54.8973 45.1717 54.9103 44.9899 54.9657 44.8191C55.0211 44.6482 55.1172 44.4934 55.2457 44.368L56.8192 42.8355L54.6462 42.5197C54.4684 42.4938 54.2996 42.4252 54.1542 42.3196C54.0089 42.214 53.8914 42.0746 53.8118 41.9135L52.8389 39.9433L51.8671 41.9135C51.7877 42.0748 51.6703 42.2144 51.5249 42.3202C51.3795 42.426 51.2106 42.4948 51.0327 42.5208L48.8597 42.8366L50.4321 44.3691C50.5606 44.4945 50.6567 44.6494 50.7121 44.8202C50.7675 44.991 50.7806 45.1728 50.7501 45.3498L50.38 47.515L52.3225 46.4922C52.4818 46.4082 52.6589 46.3638 52.8389 46.3626Z" fill="#C2A38F"/>
<path d="M24.9015 27.3973H12.8464C12.5525 27.3973 12.2706 27.2806 12.0628 27.0727C11.855 26.8649 11.7383 26.5831 11.7383 26.2892V19.4799C11.7617 17.6028 12.5238 15.8105 13.8594 14.4914C15.1951 13.1723 16.9967 12.4326 18.8739 12.4326C20.7512 12.4326 22.5528 13.1723 23.8885 14.4914C25.2241 15.8105 25.9862 17.6028 26.0096 19.4799V26.2892C26.0096 26.5831 25.8929 26.8649 25.685 27.0727C25.4772 27.2806 25.1954 27.3973 24.9015 27.3973ZM13.9545 25.1811H23.7934V19.4799C23.774 18.1879 23.2472 16.9555 22.3267 16.0487C21.4062 15.142 20.166 14.6337 18.8739 14.6337C17.5819 14.6337 16.3416 15.142 15.4212 16.0487C14.5007 16.9555 13.9739 18.1879 13.9545 19.4799V25.1811Z" fill="#C2A38F"/>
</svg>
