<svg width="79" height="79" viewBox="0 0 79 79" fill="none" xmlns="http://www.w3.org/2000/svg">
<g clip-path="url(#clip0)">
<path d="M74.0564 21.0517C72.3097 20.3284 69.8096 20.8176 68.4488 23.6029C68.4451 23.6109 68.4411 23.6186 68.4375 23.6266L63.4274 34.3525C62.6834 34.0434 61.862 33.9655 61.0537 34.1355C59.9874 34.3593 59.0736 34.9853 58.4808 35.8974C58.1062 36.4737 56.8744 38.444 55.57 40.53C54.3317 42.5105 53.0513 44.5584 52.6917 45.1117C51.9519 46.2499 50.5809 47.5588 49.1294 48.9443C45.104 52.7869 39.6807 57.965 40.4497 66.0692H38.5499C38.9027 62.3642 37.9974 58.9193 35.7978 55.5781C35.3383 54.8805 34.4005 54.6875 33.7029 55.1465C33.0054 55.6058 32.812 56.5436 33.2713 57.2414C35.1552 60.1032 35.8728 62.93 35.5066 66.0692H22.9355L23.0989 62.7945C23.1182 62.4069 22.9879 62.0267 22.7347 61.7325L17.4282 55.5683C14.0976 51.6994 13.4107 50.48 11.7744 45.5331C10.4317 41.4734 8.876 36.2706 7.6259 32.0901C6.68175 28.9323 5.93527 26.4362 5.57654 25.4233C5.27695 24.5437 5.67121 24.0241 6.10087 23.8461C6.71487 23.5909 7.37622 24.0026 7.8278 24.9197L13.3865 36.8199C13.184 37.6089 13.1842 38.62 13.5438 39.914C14.5811 43.6458 15.9507 47.4183 17.3012 50.2642C17.659 51.0189 18.5608 51.3403 19.3158 50.9821C20.0703 50.6242 20.3918 49.7222 20.0337 48.9676C18.7544 46.2714 17.4511 42.676 16.4579 39.1038C16.1774 38.094 16.2123 37.4658 16.5623 37.2364C16.7864 37.0894 17.057 37.0395 17.3243 37.0956C17.5976 37.1531 17.8314 37.3129 17.9828 37.546C18.7384 38.7084 19.4741 39.9358 20.2534 41.2353C21.4894 43.2971 22.7677 45.429 24.1295 47.2748C24.6254 47.9467 25.5721 48.0898 26.2444 47.5938C26.9164 47.0979 27.0594 46.151 26.5633 45.4789C25.2872 43.7497 24.0469 41.6808 22.8475 39.68C22.0888 38.4145 21.3043 37.1059 20.519 35.8977C19.9261 34.9855 19.0124 34.3595 17.9461 34.1357C17.1373 33.9657 16.3162 34.0436 15.5723 34.3527L10.5622 23.6268C10.5586 23.6188 10.5547 23.6111 10.5509 23.603C9.19026 20.8181 6.69037 20.3284 4.94348 21.0519C3.17436 21.7845 1.84184 23.8609 2.71839 26.4119C2.72005 26.4167 2.72156 26.4214 2.72338 26.4264C3.05534 27.3621 3.83056 29.9547 4.72828 32.9567C5.98397 37.156 7.54666 42.3818 8.90292 46.4826C10.6661 51.8141 11.54 53.3644 15.136 57.5417L20.048 63.2476L19.9074 66.0692H18.3306C17.4955 66.0692 16.8183 66.7464 16.8183 67.5815V76.7042C16.8183 77.5393 17.4955 78.2165 18.3306 78.2165H60.6693C61.5044 78.2165 62.1816 77.5393 62.1816 76.7042V67.5815C62.1816 66.7464 61.5044 66.0692 60.6693 66.0692H59.0925L58.9519 63.2476L63.8639 57.5417C67.4599 53.3644 68.3338 51.8141 70.0968 46.4828C71.4535 42.3811 73.0164 37.1543 74.2721 32.9547C75.1695 29.9536 75.9446 27.3618 76.2764 26.4264C76.2782 26.4216 76.2797 26.4169 76.2814 26.412C77.1579 23.861 75.8255 21.7846 74.0564 21.0517ZM19.843 69.094H37.9876V75.192H19.843V69.094ZM59.1569 75.192H41.0121V69.094H59.1569V75.192ZM73.4229 25.4233C73.0643 26.4361 72.3181 28.9313 71.3741 32.0881C70.1239 36.2691 68.568 41.4727 67.2251 45.5329C65.589 50.48 64.9021 51.6993 61.5714 55.5681L56.2649 61.7324C56.0117 62.0265 55.8814 62.4067 55.9007 62.7944L56.0641 66.069H43.4904C42.7049 59.2584 47.2157 54.9523 51.2178 51.1319C52.8004 49.621 54.2955 48.1938 55.2276 46.7599C55.6017 46.1841 56.8319 44.2166 58.1346 42.1333C59.3744 40.1502 60.6567 38.0996 61.0168 37.5455C61.1682 37.3126 61.402 37.1528 61.6753 37.0953C61.9425 37.0392 62.2133 37.089 62.4375 37.2361C62.7873 37.4655 62.8224 38.0937 62.5415 39.1035C61.5488 42.6755 60.2453 46.2708 58.9659 48.9673C58.6078 49.7219 58.9293 50.6239 59.6838 50.9818C60.4388 51.3403 61.3406 51.0186 61.6984 50.2639C63.0491 47.4177 64.4183 43.6451 65.4556 39.9137C65.8154 38.6196 65.8157 37.6086 65.6132 36.8196L71.1716 24.9195C71.6231 24.0026 72.284 23.5914 72.8987 23.8458C73.3284 24.0241 73.7226 24.5437 73.4229 25.4233Z" fill="#C2A38F"/>
<path d="M27.0893 24.4612L26.1087 31.938C25.9218 32.9087 26.0517 33.8909 26.4857 34.7818C27.2714 36.3953 28.8924 37.3353 30.5769 37.3352C31.2432 37.3352 31.9198 37.1879 32.5582 36.8773L39.4214 33.5364L46.4695 36.894C47.2663 37.2745 48.1573 37.4113 49.0456 37.2879C50.2461 37.1218 51.3103 36.4981 52.0418 35.5317C52.7733 34.5654 53.0847 33.372 52.9184 32.1694L51.8608 24.6012L57.0788 19.0974C57.7855 18.4233 58.2475 17.5587 58.416 16.594C58.6246 15.3988 58.3554 14.1938 57.6577 13.2011C56.9601 12.2084 55.9176 11.5468 54.7261 11.3388L47.2051 10.0064L43.4784 3.15105C43.4783 3.1509 43.4781 3.1506 43.478 3.15029C43.0534 2.37054 42.4143 1.73717 41.6297 1.31886C40.5616 0.749014 39.3352 0.629086 38.1771 0.981913C37.0188 1.33444 36.0671 2.11692 35.4969 3.18568L31.9061 9.92645L24.347 11.3313C23.4249 11.4758 22.5818 11.8946 21.9076 12.5434C21.0344 13.3833 20.5404 14.513 20.517 15.7246C20.4935 16.9361 20.943 18.0843 21.7843 18.9588L27.0893 24.4612ZM24.0046 14.7233C24.2316 14.5049 24.5153 14.3647 24.825 14.3181C24.8421 14.3155 24.8593 14.3127 24.8764 14.3095L33.1747 12.7674C33.6272 12.6831 34.0167 12.3977 34.2332 11.9915L38.1662 4.60864C38.3558 4.25309 38.6725 3.99297 39.0579 3.87561C39.2029 3.8313 39.3513 3.80937 39.4989 3.80937C39.7429 3.80937 39.9849 3.86926 40.2066 3.98767C40.4678 4.12696 40.6803 4.33732 40.8211 4.59578L44.8956 12.091C45.1155 12.4953 45.5075 12.7776 45.9606 12.8578L54.2023 14.3178C54.6018 14.3874 54.9499 14.6085 55.1829 14.9401C55.416 15.2718 55.506 15.6744 55.4364 16.0738C55.3791 16.4016 55.2206 16.6944 54.9782 16.921C54.9558 16.942 54.9337 16.9636 54.9125 16.9862L49.1648 23.0486C48.8481 23.3826 48.7008 23.8426 48.7645 24.2984L49.9226 32.5859C50.0369 33.4123 49.4577 34.1776 48.6317 34.2918C48.331 34.3335 48.034 34.2892 47.7715 34.1638L40.0648 30.4925C39.6493 30.2947 39.1661 30.2965 38.7524 30.4981L31.2341 34.1576C30.4819 34.5242 29.5716 34.2098 29.205 33.4573C29.0571 33.1537 29.0149 32.8189 29.0828 32.4891C29.0904 32.4532 29.0964 32.4169 29.1011 32.3806L30.1829 24.1324C30.2428 23.676 30.0916 23.2173 29.7722 22.8859L23.9628 16.8608C23.6829 16.5698 23.533 16.1872 23.5409 15.7834C23.5488 15.3798 23.7133 15.0033 24.0046 14.7233Z" fill="#C2A38F"/>
<path d="M37.8234 24.713C36.9883 24.713 36.3111 25.3902 36.3111 26.2253C36.3111 27.0604 36.9883 27.7376 37.8234 27.7376H41.1767C42.0118 27.7376 42.6891 27.0604 42.6891 26.2253C42.6891 25.3902 42.0118 24.713 41.1767 24.713H41.0123V14.1268C41.0123 13.5866 40.7241 13.0872 40.2562 12.8171C39.7883 12.5469 39.2118 12.5469 38.7439 12.8171L37.0673 13.785C36.3439 14.2027 36.0961 15.1275 36.5138 15.8509C36.8229 16.3862 37.41 16.6613 37.9877 16.5984V24.7128H37.8234V24.713Z" fill="#C2A38F"/>
<path d="M30.0907 49.7431C29.2556 49.7431 28.5789 50.4203 28.5789 51.2555C28.5789 52.0906 29.2565 52.7678 30.0917 52.7678C30.927 52.7678 31.6041 52.0906 31.6041 51.2555C31.6041 50.4203 30.9269 49.7431 30.0917 49.7431H30.0907Z" fill="#C2A38F"/>
</g>
<defs>
<clipPath id="clip0">
<rect width="77.4333" height="77.4333" fill="white" transform="translate(0.783325 0.78334)"/>
</clipPath>
</defs>
</svg>
